<svg xmlns="http://www.w3.org/2000/svg" width="1200" height="900" viewBox="0 0 1200 900" role="img" aria-label="한국 주거 평면도 기호 레퍼런스 시트">
  <rect width="1200" height="900" fill="#f7f8fa"/>
  <text x="40" y="58" font-family="Arial, Apple SD Gothic Neo, sans-serif" font-size="28" font-weight="700" fill="#111">Korean Floor Plan Symbol References</text>
  <text x="40" y="90" font-family="Arial, Apple SD Gothic Neo, sans-serif" font-size="16" fill="#444">Project-owned SVG symbols for OpenAI object extraction. Doors split walls. Windows keep wall continuity.</text>

  <g font-family="Arial, Apple SD Gothic Neo, sans-serif" font-size="15" font-weight="700" fill="#111">
    <g transform="translate(40 130)">
      <rect width="180" height="140" rx="8" fill="#fff" stroke="#d0d5dd"/>
      <image href="references/doors/swing-door-left.svg" x="30" y="12" width="120" height="92"/>
      <text x="90" y="124" text-anchor="middle">여닫이문</text>
    </g>
    <g transform="translate(260 130)">
      <rect width="180" height="140" rx="8" fill="#fff" stroke="#d0d5dd"/>
      <image href="references/doors/double-swing-door.svg" x="16" y="12" width="148" height="92"/>
      <text x="90" y="124" text-anchor="middle">양개문</text>
    </g>
    <g transform="translate(480 130)">
      <rect width="180" height="140" rx="8" fill="#fff" stroke="#d0d5dd"/>
      <image href="references/doors/sliding-door.svg" x="16" y="30" width="148" height="72"/>
      <text x="90" y="124" text-anchor="middle">미닫이문</text>
    </g>
    <g transform="translate(700 130)">
      <rect width="180" height="140" rx="8" fill="#fff" stroke="#d0d5dd"/>
      <image href="references/doors/pocket-door.svg" x="16" y="30" width="148" height="72"/>
      <text x="90" y="124" text-anchor="middle">포켓도어</text>
    </g>
    <g transform="translate(920 130)">
      <rect width="180" height="140" rx="8" fill="#fff" stroke="#d0d5dd"/>
      <image href="references/windows/window-line.svg" x="16" y="30" width="148" height="72"/>
      <text x="90" y="124" text-anchor="middle">창문/창호</text>
    </g>

    <g transform="translate(40 310)">
      <rect width="180" height="140" rx="8" fill="#fff" stroke="#d0d5dd"/>
      <image href="references/windows/balcony-window.svg" x="5" y="32" width="170" height="62"/>
      <text x="90" y="124" text-anchor="middle">발코니 창호</text>
    </g>
    <g transform="translate(260 310)">
      <rect width="180" height="140" rx="8" fill="#fff" stroke="#d0d5dd"/>
      <image href="references/bathroom/toilet.svg" x="40" y="12" width="100" height="100"/>
      <text x="90" y="124" text-anchor="middle">변기</text>
    </g>
    <g transform="translate(480 310)">
      <rect width="180" height="140" rx="8" fill="#fff" stroke="#d0d5dd"/>
      <image href="references/bathroom/sink.svg" x="40" y="12" width="100" height="100"/>
      <text x="90" y="124" text-anchor="middle">세면대</text>
    </g>
    <g transform="translate(700 310)">
      <rect width="180" height="140" rx="8" fill="#fff" stroke="#d0d5dd"/>
      <image href="references/bathroom/bathtub.svg" x="15" y="26" width="150" height="82"/>
      <text x="90" y="124" text-anchor="middle">욕조</text>
    </g>
    <g transform="translate(920 310)">
      <rect width="180" height="140" rx="8" fill="#fff" stroke="#d0d5dd"/>
      <image href="references/bathroom/shower-booth.svg" x="40" y="12" width="100" height="100"/>
      <text x="90" y="124" text-anchor="middle">샤워부스</text>
    </g>

    <g transform="translate(40 490)">
      <rect width="180" height="140" rx="8" fill="#fff" stroke="#d0d5dd"/>
      <image href="references/bathroom/floor-drain.svg" x="50" y="22" width="80" height="80"/>
      <text x="90" y="124" text-anchor="middle">배수구</text>
    </g>
    <g transform="translate(260 490)">
      <rect width="180" height="140" rx="8" fill="#fff" stroke="#d0d5dd"/>
      <image href="references/kitchen/kitchen-sink.svg" x="20" y="28" width="140" height="82"/>
      <text x="90" y="124" text-anchor="middle">주방 싱크대</text>
    </g>
    <g transform="translate(480 490)">
      <rect width="180" height="140" rx="8" fill="#fff" stroke="#d0d5dd"/>
      <image href="references/kitchen/gas-range.svg" x="40" y="20" width="100" height="88"/>
      <text x="90" y="124" text-anchor="middle">가스레인지</text>
    </g>
    <g transform="translate(700 490)">
      <rect width="180" height="140" rx="8" fill="#fff" stroke="#d0d5dd"/>
      <image href="references/kitchen/refrigerator.svg" x="55" y="10" width="70" height="104"/>
      <text x="90" y="124" text-anchor="middle">냉장고</text>
    </g>
    <g transform="translate(920 490)">
      <rect width="180" height="140" rx="8" fill="#fff" stroke="#d0d5dd"/>
      <image href="references/structure/stairs.svg" x="15" y="20" width="150" height="94"/>
      <text x="90" y="124" text-anchor="middle">계단</text>
    </g>

    <g transform="translate(40 670)">
      <rect width="180" height="140" rx="8" fill="#fff" stroke="#d0d5dd"/>
      <image href="references/structure/elevator.svg" x="40" y="12" width="100" height="100"/>
      <text x="90" y="124" text-anchor="middle">엘리베이터</text>
    </g>
    <g transform="translate(260 670)">
      <rect width="180" height="140" rx="8" fill="#fff" stroke="#d0d5dd"/>
      <image href="references/structure/column.svg" x="55" y="22" width="70" height="70"/>
      <text x="90" y="124" text-anchor="middle">기둥</text>
    </g>
  </g>
</svg>
