<svg xmlns="http://www.w3.org/2000/svg" viewBox="0 0 800 28" preserveAspectRatio="xMidYMid slice">
<defs>
<linearGradient id="sky" x1="0.1" y1="0" x2="0.22" y2="1">
<stop offset="0" stop-color="#0a0c24"/><stop offset="0.42" stop-color="#171040"/>
<stop offset="0.75" stop-color="#281b52"/><stop offset="1" stop-color="#3a2a6a"/>
</linearGradient>
<radialGradient id="mw" cx="0.5" cy="0.5" r="0.5"><stop offset="0" stop-color="#c3cbff" stop-opacity="0.17"/><stop offset="0.55" stop-color="#b9c0ff" stop-opacity="0.08"/><stop offset="1" stop-color="#b9c0ff" stop-opacity="0"/></radialGradient>
<radialGradient id="core" cx="0.5" cy="0.5" r="0.5"><stop offset="0" stop-color="#ffe9d9" stop-opacity="0.22"/><stop offset="0.4" stop-color="#e8d5ff" stop-opacity="0.12"/><stop offset="1" stop-color="#e8d5ff" stop-opacity="0"/></radialGradient>
<radialGradient id="neb1" cx="0.5" cy="0.5" r="0.5"><stop offset="0" stop-color="#7d5be0" stop-opacity="0.34"/><stop offset="1" stop-color="#7d5be0" stop-opacity="0"/></radialGradient>
<radialGradient id="neb2" cx="0.5" cy="0.5" r="0.5"><stop offset="0" stop-color="#c15aa6" stop-opacity="0.3"/><stop offset="1" stop-color="#c15aa6" stop-opacity="0"/></radialGradient>
<radialGradient id="halo" cx="0.5" cy="0.5" r="0.5"><stop offset="0" stop-color="#ffffff" stop-opacity="0.9"/><stop offset="1" stop-color="#ffffff" stop-opacity="0"/></radialGradient>
<radialGradient id="vig" cx="0.5" cy="0.5" r="0.5"><stop offset="0" stop-color="#070818" stop-opacity="0.42"/><stop offset="0.6" stop-color="#070818" stop-opacity="0.25"/><stop offset="1" stop-color="#070818" stop-opacity="0"/></radialGradient>
<filter id="b" x="-40%" y="-40%" width="180%" height="180%"><feGaussianBlur stdDeviation="28"/></filter>
</defs>

<g filter="url(#b)">
<ellipse cx="725" cy="4" rx="300" ry="130" fill="url(#mw)" opacity="0.85" transform="rotate(-1.9 725 4)"/><ellipse cx="577" cy="9" rx="260" ry="95" fill="url(#mw)" opacity="0.50" transform="rotate(-1.9 577 9)"/><ellipse cx="393" cy="15" rx="250" ry="90" fill="url(#mw)" opacity="0.30" transform="rotate(-1.9 393 15)"/><ellipse cx="224" cy="21" rx="250" ry="90" fill="url(#mw)" opacity="0.45" transform="rotate(-1.9 224 21)"/><ellipse cx="68" cy="26" rx="260" ry="110" fill="url(#mw)" opacity="0.60" transform="rotate(-1.9 68 26)"/><ellipse cx="746" cy="4" rx="230" ry="150" fill="url(#core)" opacity="0.75"/><ellipse cx="633" cy="33" rx="230" ry="26" fill="#0a0a20" opacity="0.25" transform="rotate(-1.9 633 33)"/>
<ellipse cx="106" cy="24" rx="260" ry="190" fill="url(#neb1)"/>
<ellipse cx="674" cy="8" rx="240" ry="170" fill="url(#neb2)"/>
<ellipse cx="226" cy="5" rx="190" ry="120" fill="url(#neb1)" opacity="0.5"/>
</g>
<g><circle cx="84.8" cy="16.4" r="0.42" fill="#ffffff" opacity="0.28"/><circle cx="393.0" cy="10.6" r="0.72" fill="#ffffff" opacity="0.26"/><circle cx="512.3" cy="10.1" r="0.78" fill="#ffffff" opacity="0.42"/><circle cx="462.3" cy="6.0" r="0.47" fill="#cfe0ff" opacity="0.32"/><circle cx="290.3" cy="23.8" r="0.63" fill="#ffffff" opacity="0.28"/><circle cx="158.1" cy="12.1" r="0.75" fill="#ffffff" opacity="0.43"/><circle cx="352.3" cy="23.9" r="0.41" fill="#ffffff" opacity="0.37"/><circle cx="229.7" cy="18.7" r="0.75" fill="#ffffff" opacity="0.36"/><circle cx="158.9" cy="19.3" r="0.64" fill="#ffffff" opacity="0.54"/><circle cx="708.6" cy="12.7" r="0.59" fill="#ffffff" opacity="0.40"/><circle cx="359.1" cy="23.4" r="0.55" fill="#ffffff" opacity="0.26"/><circle cx="438.7" cy="13.1" r="0.41" fill="#ffffff" opacity="0.37"/><circle cx="595.0" cy="25.4" r="0.43" fill="#cfe0ff" opacity="0.25"/><circle cx="341.7" cy="24.9" r="0.65" fill="#cfe0ff" opacity="0.20"/><circle cx="174.5" cy="23.8" r="0.79" fill="#ffffff" opacity="0.30"/><circle cx="646.7" cy="6.1" r="0.65" fill="#ffffff" opacity="0.44"/><circle cx="583.4" cy="12.8" r="0.70" fill="#cfe0ff" opacity="0.24"/><circle cx="356.4" cy="7.0" r="0.63" fill="#ffe3c4" opacity="0.33"/><circle cx="393.7" cy="20.6" r="0.36" fill="#cfe0ff" opacity="0.54"/><circle cx="417.3" cy="19.3" r="0.76" fill="#ffffff" opacity="0.37"/><circle cx="312.8" cy="7.2" r="0.46" fill="#ffffff" opacity="0.31"/><circle cx="390.6" cy="17.0" r="0.59" fill="#e3d5ff" opacity="0.47"/><circle cx="506.3" cy="13.2" r="0.79" fill="#cfe0ff" opacity="0.55"/><circle cx="513.1" cy="17.1" r="0.76" fill="#ffffff" opacity="0.44"/><circle cx="299.8" cy="10.4" r="0.38" fill="#ffffff" opacity="0.42"/><circle cx="655.6" cy="8.9" r="0.75" fill="#ffffff" opacity="0.54"/><circle cx="157.4" cy="3.1" r="0.83" fill="#ffffff" opacity="0.51"/><circle cx="326.7" cy="22.1" r="0.54" fill="#ffffff" opacity="0.48"/><circle cx="172.7" cy="13.8" r="0.65" fill="#ffffff" opacity="0.51"/><circle cx="368.8" cy="16.6" r="0.83" fill="#cfe0ff" opacity="0.25"/><circle cx="390.2" cy="11.9" r="0.66" fill="#e3d5ff" opacity="0.27"/><circle cx="283.3" cy="24.2" r="0.45" fill="#ffffff" opacity="0.25"/><circle cx="780.9" cy="14.1" r="0.50" fill="#ffffff" opacity="0.54"/><circle cx="179.1" cy="5.8" r="0.66" fill="#ffffff" opacity="0.48"/><circle cx="367.3" cy="17.4" r="0.85" fill="#cfe0ff" opacity="0.36"/><circle cx="639.1" cy="18.0" r="0.75" fill="#ffe3c4" opacity="0.38"/><circle cx="36.0" cy="20.8" r="0.45" fill="#ffffff" opacity="0.29"/><circle cx="332.8" cy="13.4" r="0.40" fill="#ffe3c4" opacity="0.29"/><circle cx="682.9" cy="6.7" r="0.76" fill="#ffffff" opacity="0.48"/><circle cx="476.2" cy="17.8" r="0.59" fill="#ffffff" opacity="0.45"/><circle cx="156.0" cy="4.1" r="0.62" fill="#ffffff" opacity="0.24"/><circle cx="775.1" cy="4.8" r="0.40" fill="#ffffff" opacity="0.40"/><circle cx="662.9" cy="13.5" r="0.88" fill="#ffffff" opacity="0.38"/><circle cx="149.6" cy="19.6" r="0.59" fill="#ffffff" opacity="0.44"/><circle cx="321.0" cy="24.3" r="0.50" fill="#cfe0ff" opacity="0.27"/><circle cx="672.3" cy="15.1" r="0.78" fill="#cfe0ff" opacity="0.25"/><circle cx="129.5" cy="8.7" r="0.60" fill="#ffffff" opacity="0.27"/><circle cx="242.3" cy="24.5" r="0.63" fill="#cfe0ff" opacity="0.42"/><circle cx="759.8" cy="6.8" r="0.77" fill="#ffffff" opacity="0.31"/><circle cx="742.3" cy="21.2" r="0.37" fill="#ffffff" opacity="0.48"/><circle cx="222.7" cy="6.6" r="1.04" fill="#ffffff" opacity="0.40"/><circle cx="435.3" cy="18.6" r="1.03" fill="#ffffff" opacity="0.71"/><circle cx="511.2" cy="20.9" r="1.08" fill="#e3d5ff" opacity="0.55"/><circle cx="657.4" cy="4.6" r="1.10" fill="#ffffff" opacity="0.63"/><circle cx="654.7" cy="8.4" r="0.93" fill="#ffffff" opacity="0.48"/><circle cx="675.7" cy="6.5" r="0.91" fill="#ffffff" opacity="0.65"/><circle cx="105.0" cy="14.2" r="1.00" fill="#cfe0ff" opacity="0.36"/><circle cx="62.3" cy="19.4" r="1.08" fill="#ffffff" opacity="0.56"/><circle cx="304.1" cy="6.8" r="1.00" fill="#ffffff" opacity="0.39"/><circle cx="262.4" cy="12.8" r="0.76" fill="#cfe0ff" opacity="0.64"/><circle cx="252.6" cy="2.8" r="0.73" fill="#ffffff" opacity="0.66"/><circle cx="6.7" cy="14.3" r="0.75" fill="#ffffff" opacity="0.51"/><circle cx="197.5" cy="9.2" r="0.75" fill="#ffffff" opacity="0.46"/><circle cx="152.0" cy="4.9" r="0.81" fill="#ffffff" opacity="0.70"/><circle cx="717.8" cy="19.3" r="0.93" fill="#ffffff" opacity="0.71"/><circle cx="380.4" cy="22.5" r="1.21" fill="#e3d5ff" opacity="0.50"/><circle cx="756.1" cy="22.6" r="0.83" fill="#cfe0ff" opacity="0.45"/><circle cx="207.3" cy="21.3" r="1.01" fill="#ffe3c4" opacity="0.64"/><circle cx="628.6" cy="21.0" r="0.92" fill="#ffffff" opacity="0.67"/><circle cx="263.6" cy="21.0" r="0.98" fill="#cfe0ff" opacity="0.66"/><circle cx="185.6" cy="13.3" r="0.78" fill="#ffffff" opacity="0.43"/><circle cx="550.3" cy="24.3" r="0.86" fill="#cfe0ff" opacity="0.48"/><circle cx="440.6" cy="15.7" r="1.20" fill="#ffffff" opacity="0.50"/><circle cx="337.7" cy="24.9" r="1.20" fill="#ffffff" opacity="0.59"/><circle cx="603.3" cy="25.3" r="1.19" fill="#ffffff" opacity="0.61"/></g>
<g><circle cx="599.5" cy="2.0" r="1.50" fill="#e3d5ff" opacity="0.55"/><circle cx="440.5" cy="14.0" r="1.25" fill="#ffffff" opacity="0.86"/><circle cx="292.0" cy="26.0" r="0.80" fill="#ffffff" opacity="0.79"/><circle cx="381.9" cy="2.0" r="1.18" fill="#e3d5ff" opacity="0.72"/><circle cx="674.6" cy="2.0" r="1.20" fill="#ffe3c4" opacity="0.77"/><circle cx="591.4" cy="26.0" r="1.13" fill="#cfe0ff" opacity="0.48"/><circle cx="368.4" cy="16.1" r="1.78" fill="#ffffff" opacity="0.59"/><circle cx="752.1" cy="2.0" r="0.81" fill="#cfe0ff" opacity="0.84"/><circle cx="312.5" cy="15.2" r="1.24" fill="#ffffff" opacity="0.96"/><circle cx="766.5" cy="9.5" r="0.99" fill="#cfe0ff" opacity="0.46"/><circle cx="679.6" cy="5.5" r="1.20" fill="#ffffff" opacity="0.72"/><circle cx="576.5" cy="9.4" r="1.76" fill="#ffffff" opacity="0.86"/><circle cx="117.0" cy="18.9" r="1.43" fill="#ffffff" opacity="0.63"/><circle cx="629.4" cy="2.0" r="1.42" fill="#ffffff" opacity="0.91"/><circle cx="773.0" cy="10.0" r="1.47" fill="#ffffff" opacity="0.76"/><circle cx="742.0" cy="23.8" r="0.96" fill="#ffffff" opacity="0.56"/><circle cx="765.5" cy="2.0" r="1.24" fill="#cfe0ff" opacity="0.58"/><circle cx="521.2" cy="26.0" r="1.39" fill="#ffffff" opacity="0.78"/><circle cx="109.7" cy="2.0" r="1.07" fill="#ffe3c4" opacity="0.71"/><circle cx="277.1" cy="2.0" r="0.90" fill="#ffffff" opacity="0.49"/><circle cx="446.3" cy="2.0" r="0.87" fill="#ffffff" opacity="0.69"/><circle cx="769.9" cy="2.0" r="0.73" fill="#ffe3c4" opacity="0.65"/><circle cx="103.5" cy="24.9" r="1.86" fill="#ffffff" opacity="0.88"/><circle cx="646.5" cy="5.1" r="1.48" fill="#ffffff" opacity="0.91"/><circle cx="256.1" cy="26.0" r="0.73" fill="#ffffff" opacity="0.61"/><circle cx="438.1" cy="13.8" r="1.39" fill="#ffe3c4" opacity="0.61"/><circle cx="96.9" cy="23.9" r="1.70" fill="#ffffff" opacity="0.74"/><circle cx="744.7" cy="2.0" r="1.06" fill="#ffffff" opacity="0.84"/><circle cx="518.8" cy="26.0" r="0.95" fill="#ffffff" opacity="0.42"/><circle cx="564.1" cy="2.0" r="1.51" fill="#ffffff" opacity="0.50"/><circle cx="540.5" cy="2.0" r="1.51" fill="#ffffff" opacity="0.46"/><circle cx="751.8" cy="5.0" r="1.60" fill="#ffffff" opacity="0.93"/><circle cx="21.2" cy="8.0" r="1.38" fill="#ffffff" opacity="0.74"/><circle cx="77.4" cy="12.7" r="1.52" fill="#ffffff" opacity="0.90"/><circle cx="675.9" cy="26.0" r="0.81" fill="#ffffff" opacity="0.74"/><circle cx="78.7" cy="2.0" r="0.77" fill="#ffffff" opacity="0.82"/><circle cx="679.3" cy="2.0" r="0.92" fill="#ffffff" opacity="0.54"/><circle cx="47.9" cy="26.0" r="1.10" fill="#cfe0ff" opacity="0.87"/><circle cx="544.4" cy="26.0" r="1.11" fill="#ffffff" opacity="0.62"/><circle cx="413.0" cy="26.0" r="0.71" fill="#ffe3c4" opacity="0.70"/><circle cx="333.2" cy="2.0" r="1.42" fill="#ffffff" opacity="0.86"/><circle cx="347.4" cy="2.0" r="1.23" fill="#ffffff" opacity="0.49"/><circle cx="516.0" cy="2.0" r="1.54" fill="#ffe3c4" opacity="0.82"/><circle cx="336.4" cy="2.0" r="0.99" fill="#ffffff" opacity="0.95"/><circle cx="693.1" cy="13.6" r="1.69" fill="#ffffff" opacity="0.48"/><circle cx="267.9" cy="26.0" r="1.47" fill="#ffffff" opacity="0.71"/><circle cx="617.2" cy="7.9" r="1.69" fill="#cfe0ff" opacity="0.81"/><circle cx="751.8" cy="2.0" r="1.59" fill="#ffe3c4" opacity="0.95"/><circle cx="748.1" cy="26.0" r="0.91" fill="#ffffff" opacity="0.41"/><circle cx="152.2" cy="10.4" r="1.63" fill="#ffffff" opacity="0.49"/><circle cx="748.2" cy="3.3" r="1.30" fill="#ffffff" opacity="0.62"/><circle cx="167.6" cy="2.0" r="1.04" fill="#ffffff" opacity="0.85"/><circle cx="372.3" cy="15.7" r="1.42" fill="#ffffff" opacity="0.49"/><circle cx="59.7" cy="26.0" r="1.81" fill="#ffffff" opacity="0.93"/></g>

<g><circle cx="20.4" cy="14.1" r="13.8" fill="url(#halo)" opacity="0.30"/><circle cx="20.4" cy="14.1" r="1.97" fill="#ffffff" opacity="0.94"/><circle cx="288.6" cy="9.2" r="14.0" fill="url(#halo)" opacity="0.30"/><circle cx="288.6" cy="9.2" r="1.99" fill="#ffffff" opacity="0.78"/><circle cx="673.8" cy="9.4" r="1.50" fill="#ffffff" opacity="0.86"/><circle cx="354.2" cy="18.1" r="1.94" fill="#cfe0ff" opacity="0.81"/><circle cx="267.2" cy="16.5" r="1.43" fill="#ffffff" opacity="0.90"/><circle cx="401.8" cy="18.2" r="2.22" fill="#ffffff" opacity="0.81"/><circle cx="200.4" cy="9.1" r="1.40" fill="#ffffff" opacity="0.78"/></g>
<g opacity="0.65"><circle cx="62" cy="4" r="16" fill="url(#halo)" opacity="0.55"/><path d="M47 4H77M62 -11V19" stroke="#ffffff" stroke-width="0.9" opacity="0.6"/><circle cx="62" cy="4" r="1.7" fill="#ffffff"/></g><g opacity="0.65"><circle cx="758" cy="23" r="16" fill="url(#halo)" opacity="0.55"/><path d="M745 23H771M758 10V36" stroke="#ffffff" stroke-width="0.9" opacity="0.6"/><circle cx="758" cy="23" r="1.7" fill="#ffffff"/></g><g opacity="0.65"><circle cx="102" cy="24" r="16" fill="url(#halo)" opacity="0.55"/><path d="M91 24H113M102 13V35" stroke="#ffffff" stroke-width="0.9" opacity="0.6"/><circle cx="102" cy="24" r="1.7" fill="#ffffff"/></g>
</svg>