<svg xmlns="http://www.w3.org/2000/svg" viewBox="0 0 1600 1000" preserveAspectRatio="xMidYMid slice">
<defs>
<linearGradient id="sky" x1="0.1" y1="0" x2="0.22" y2="1">
<stop offset="0" stop-color="#0a0c24"/><stop offset="0.42" stop-color="#171040"/>
<stop offset="0.75" stop-color="#281b52"/><stop offset="1" stop-color="#3a2a6a"/>
</linearGradient>
<radialGradient id="mw" cx="0.5" cy="0.5" r="0.5"><stop offset="0" stop-color="#c3cbff" stop-opacity="0.17"/><stop offset="0.55" stop-color="#b9c0ff" stop-opacity="0.08"/><stop offset="1" stop-color="#b9c0ff" stop-opacity="0"/></radialGradient>
<radialGradient id="core" cx="0.5" cy="0.5" r="0.5"><stop offset="0" stop-color="#ffe9d9" stop-opacity="0.22"/><stop offset="0.4" stop-color="#e8d5ff" stop-opacity="0.12"/><stop offset="1" stop-color="#e8d5ff" stop-opacity="0"/></radialGradient>
<radialGradient id="neb1" cx="0.5" cy="0.5" r="0.5"><stop offset="0" stop-color="#7d5be0" stop-opacity="0.34"/><stop offset="1" stop-color="#7d5be0" stop-opacity="0"/></radialGradient>
<radialGradient id="neb2" cx="0.5" cy="0.5" r="0.5"><stop offset="0" stop-color="#c15aa6" stop-opacity="0.3"/><stop offset="1" stop-color="#c15aa6" stop-opacity="0"/></radialGradient>
<radialGradient id="halo" cx="0.5" cy="0.5" r="0.5"><stop offset="0" stop-color="#ffffff" stop-opacity="0.9"/><stop offset="1" stop-color="#ffffff" stop-opacity="0"/></radialGradient>
<radialGradient id="vig" cx="0.5" cy="0.5" r="0.5"><stop offset="0" stop-color="#070818" stop-opacity="0.42"/><stop offset="0.6" stop-color="#070818" stop-opacity="0.25"/><stop offset="1" stop-color="#070818" stop-opacity="0"/></radialGradient>
<filter id="b" x="-40%" y="-40%" width="180%" height="180%"><feGaussianBlur stdDeviation="28"/></filter>
</defs>

<g filter="url(#b)">
<ellipse cx="1450" cy="150" rx="300" ry="130" fill="url(#mw)" opacity="0.72" transform="rotate(-30.7 1450 150)"/><ellipse cx="1154" cy="326" rx="260" ry="95" fill="url(#mw)" opacity="0.42" transform="rotate(-30.7 1154 326)"/><ellipse cx="786" cy="545" rx="250" ry="90" fill="url(#mw)" opacity="0.26" transform="rotate(-30.7 786 545)"/><ellipse cx="447" cy="746" rx="250" ry="90" fill="url(#mw)" opacity="0.38" transform="rotate(-30.7 447 746)"/><ellipse cx="137" cy="930" rx="260" ry="110" fill="url(#mw)" opacity="0.51" transform="rotate(-30.7 137 930)"/><ellipse cx="1493" cy="125" rx="230" ry="150" fill="url(#core)" opacity="0.64"/><ellipse cx="1267" cy="285" rx="230" ry="26" fill="#0a0a20" opacity="0.21" transform="rotate(-30.7 1267 285)"/>
<ellipse cx="213" cy="857" rx="260" ry="190" fill="url(#neb1)"/>
<ellipse cx="1347" cy="268" rx="240" ry="170" fill="url(#neb2)"/>
<ellipse cx="453" cy="161" rx="190" ry="120" fill="url(#neb1)" opacity="0.5"/>
</g>
<g><circle cx="613.0" cy="147.6" r="0.84" fill="#e3d5ff" opacity="0.34"/><circle cx="18.8" cy="326.8" r="0.79" fill="#ffffff" opacity="0.42"/><circle cx="1163.0" cy="80.3" r="0.41" fill="#ffffff" opacity="0.40"/><circle cx="112.1" cy="808.8" r="0.85" fill="#ffffff" opacity="0.41"/><circle cx="579.9" cy="977.6" r="0.86" fill="#ffe3c4" opacity="0.19"/><circle cx="1043.1" cy="861.2" r="0.76" fill="#ffe3c4" opacity="0.24"/><circle cx="287.3" cy="527.7" r="0.62" fill="#ffffff" opacity="0.37"/><circle cx="794.6" cy="421.2" r="0.37" fill="#cfe0ff" opacity="0.42"/><circle cx="452.3" cy="475.7" r="0.66" fill="#ffe3c4" opacity="0.36"/><circle cx="992.6" cy="373.1" r="0.64" fill="#ffffff" opacity="0.42"/><circle cx="1565.8" cy="872.6" r="0.49" fill="#ffffff" opacity="0.44"/><circle cx="901.2" cy="701.8" r="0.44" fill="#ffffff" opacity="0.20"/><circle cx="961.2" cy="83.4" r="0.86" fill="#ffffff" opacity="0.32"/><circle cx="25.0" cy="134.6" r="0.44" fill="#ffffff" opacity="0.21"/><circle cx="1417.8" cy="464.2" r="0.43" fill="#e3d5ff" opacity="0.37"/><circle cx="1467.3" cy="190.7" r="0.63" fill="#ffffff" opacity="0.37"/><circle cx="532.9" cy="343.4" r="0.72" fill="#ffffff" opacity="0.21"/><circle cx="246.5" cy="127.5" r="0.65" fill="#ffffff" opacity="0.18"/><circle cx="28.2" cy="404.0" r="0.54" fill="#ffffff" opacity="0.28"/><circle cx="27.4" cy="988.1" r="0.70" fill="#ffffff" opacity="0.42"/><circle cx="159.7" cy="342.8" r="0.37" fill="#ffffff" opacity="0.19"/><circle cx="494.8" cy="628.6" r="0.76" fill="#ffffff" opacity="0.34"/><circle cx="1052.8" cy="12.4" r="0.80" fill="#e3d5ff" opacity="0.21"/><circle cx="554.0" cy="136.6" r="0.77" fill="#ffffff" opacity="0.34"/><circle cx="974.6" cy="913.3" r="0.75" fill="#ffffff" opacity="0.44"/><circle cx="811.9" cy="198.3" r="0.71" fill="#ffffff" opacity="0.38"/><circle cx="1473.0" cy="715.5" r="0.83" fill="#ffffff" opacity="0.29"/><circle cx="1232.6" cy="263.6" r="0.54" fill="#ffffff" opacity="0.41"/><circle cx="1585.1" cy="580.3" r="0.53" fill="#ffffff" opacity="0.45"/><circle cx="227.5" cy="913.4" r="0.50" fill="#e3d5ff" opacity="0.27"/><circle cx="737.4" cy="949.4" r="0.83" fill="#ffffff" opacity="0.29"/><circle cx="1140.2" cy="766.3" r="0.90" fill="#e3d5ff" opacity="0.21"/><circle cx="34.9" cy="838.5" r="0.52" fill="#ffffff" opacity="0.26"/><circle cx="375.4" cy="94.1" r="0.73" fill="#ffffff" opacity="0.21"/><circle cx="1433.1" cy="528.5" r="0.69" fill="#cfe0ff" opacity="0.28"/><circle cx="1069.2" cy="588.4" r="0.52" fill="#ffffff" opacity="0.33"/><circle cx="1205.4" cy="64.0" r="0.35" fill="#ffffff" opacity="0.23"/><circle cx="901.5" cy="796.9" r="0.73" fill="#ffffff" opacity="0.29"/><circle cx="41.3" cy="179.9" r="0.39" fill="#ffffff" opacity="0.24"/><circle cx="1171.7" cy="522.8" r="0.36" fill="#ffffff" opacity="0.28"/><circle cx="1379.3" cy="381.9" r="0.52" fill="#ffffff" opacity="0.32"/><circle cx="1287.5" cy="153.6" r="0.81" fill="#ffe3c4" opacity="0.42"/><circle cx="1542.5" cy="801.9" r="0.79" fill="#ffffff" opacity="0.36"/><circle cx="1169.2" cy="177.4" r="0.46" fill="#ffffff" opacity="0.19"/><circle cx="475.6" cy="929.3" r="0.66" fill="#ffffff" opacity="0.39"/><circle cx="548.0" cy="637.1" r="0.80" fill="#ffffff" opacity="0.26"/><circle cx="537.0" cy="199.8" r="0.67" fill="#ffffff" opacity="0.30"/><circle cx="1439.7" cy="70.7" r="0.72" fill="#ffe3c4" opacity="0.37"/><circle cx="172.7" cy="654.0" r="0.46" fill="#ffffff" opacity="0.38"/><circle cx="958.8" cy="41.0" r="0.83" fill="#cfe0ff" opacity="0.26"/><circle cx="1109.3" cy="475.4" r="0.86" fill="#ffffff" opacity="0.42"/><circle cx="759.2" cy="385.8" r="0.69" fill="#ffffff" opacity="0.29"/><circle cx="707.9" cy="648.8" r="0.59" fill="#ffffff" opacity="0.32"/><circle cx="371.3" cy="283.4" r="0.72" fill="#ffffff" opacity="0.37"/><circle cx="792.5" cy="828.2" r="0.87" fill="#cfe0ff" opacity="0.26"/><circle cx="1220.0" cy="453.9" r="0.70" fill="#e3d5ff" opacity="0.25"/><circle cx="1059.9" cy="570.2" r="0.63" fill="#ffffff" opacity="0.47"/><circle cx="476.0" cy="332.7" r="0.50" fill="#ffffff" opacity="0.31"/><circle cx="1160.4" cy="679.1" r="0.55" fill="#ffffff" opacity="0.37"/><circle cx="200.6" cy="484.5" r="0.88" fill="#ffffff" opacity="0.24"/><circle cx="1497.1" cy="525.8" r="0.77" fill="#cfe0ff" opacity="0.45"/><circle cx="1106.0" cy="133.5" r="0.77" fill="#ffe3c4" opacity="0.43"/><circle cx="1040.3" cy="919.3" r="0.84" fill="#ffffff" opacity="0.45"/><circle cx="1274.2" cy="761.8" r="0.69" fill="#ffffff" opacity="0.43"/><circle cx="1597.3" cy="926.7" r="0.62" fill="#cfe0ff" opacity="0.21"/><circle cx="746.2" cy="426.0" r="0.53" fill="#ffffff" opacity="0.30"/><circle cx="999.2" cy="802.2" r="0.62" fill="#e3d5ff" opacity="0.39"/><circle cx="59.8" cy="972.0" r="0.57" fill="#ffffff" opacity="0.23"/><circle cx="1481.1" cy="857.8" r="0.88" fill="#ffffff" opacity="0.32"/><circle cx="421.7" cy="734.6" r="0.61" fill="#ffffff" opacity="0.21"/><circle cx="1368.3" cy="829.3" r="0.66" fill="#ffffff" opacity="0.18"/><circle cx="577.0" cy="544.9" r="0.80" fill="#ffffff" opacity="0.35"/><circle cx="622.5" cy="726.6" r="0.47" fill="#cfe0ff" opacity="0.41"/><circle cx="136.1" cy="634.1" r="0.89" fill="#e3d5ff" opacity="0.46"/><circle cx="1554.5" cy="385.5" r="0.45" fill="#ffffff" opacity="0.38"/><circle cx="1029.9" cy="488.2" r="0.42" fill="#cfe0ff" opacity="0.37"/><circle cx="1265.8" cy="918.3" r="0.89" fill="#ffffff" opacity="0.24"/><circle cx="1361.5" cy="210.2" r="1.03" fill="#ffffff" opacity="0.41"/><circle cx="1344.9" cy="663.8" r="1.14" fill="#cfe0ff" opacity="0.58"/><circle cx="393.5" cy="662.6" r="1.22" fill="#ffffff" opacity="0.54"/><circle cx="22.7" cy="982.4" r="1.03" fill="#ffffff" opacity="0.51"/><circle cx="1326.5" cy="273.2" r="1.14" fill="#ffffff" opacity="0.36"/><circle cx="610.3" cy="257.2" r="1.11" fill="#ffffff" opacity="0.35"/><circle cx="372.5" cy="294.6" r="1.10" fill="#ffffff" opacity="0.53"/><circle cx="1517.1" cy="132.1" r="1.04" fill="#ffffff" opacity="0.39"/><circle cx="1158.7" cy="614.8" r="0.90" fill="#cfe0ff" opacity="0.30"/><circle cx="539.1" cy="186.9" r="0.84" fill="#ffffff" opacity="0.61"/><circle cx="286.6" cy="125.4" r="1.16" fill="#cfe0ff" opacity="0.34"/><circle cx="528.2" cy="514.4" r="0.86" fill="#ffffff" opacity="0.53"/><circle cx="1103.7" cy="626.9" r="0.91" fill="#ffe3c4" opacity="0.48"/><circle cx="1117.5" cy="872.9" r="1.05" fill="#ffffff" opacity="0.37"/><circle cx="1014.3" cy="635.1" r="1.11" fill="#e3d5ff" opacity="0.44"/><circle cx="1245.0" cy="529.3" r="0.93" fill="#ffffff" opacity="0.38"/><circle cx="71.2" cy="267.2" r="1.18" fill="#ffffff" opacity="0.48"/><circle cx="781.8" cy="201.9" r="0.86" fill="#ffe3c4" opacity="0.36"/><circle cx="57.6" cy="496.6" r="1.18" fill="#ffffff" opacity="0.58"/><circle cx="816.4" cy="476.2" r="1.00" fill="#e3d5ff" opacity="0.41"/><circle cx="1008.8" cy="494.7" r="1.12" fill="#ffffff" opacity="0.59"/><circle cx="669.4" cy="574.1" r="1.23" fill="#ffffff" opacity="0.50"/><circle cx="510.2" cy="855.2" r="1.05" fill="#cfe0ff" opacity="0.57"/><circle cx="288.0" cy="294.9" r="1.07" fill="#ffffff" opacity="0.41"/><circle cx="227.6" cy="942.5" r="0.90" fill="#ffffff" opacity="0.38"/><circle cx="874.4" cy="637.1" r="0.99" fill="#ffffff" opacity="0.36"/><circle cx="373.8" cy="928.8" r="0.80" fill="#ffffff" opacity="0.61"/><circle cx="32.3" cy="275.7" r="0.81" fill="#ffffff" opacity="0.34"/><circle cx="1236.9" cy="633.6" r="1.01" fill="#ffffff" opacity="0.36"/><circle cx="955.7" cy="976.4" r="0.94" fill="#cfe0ff" opacity="0.55"/><circle cx="493.9" cy="490.0" r="0.70" fill="#ffffff" opacity="0.34"/><circle cx="1398.4" cy="182.5" r="0.87" fill="#ffffff" opacity="0.54"/><circle cx="1087.2" cy="647.0" r="0.72" fill="#e3d5ff" opacity="0.36"/><circle cx="276.4" cy="907.0" r="0.99" fill="#ffffff" opacity="0.32"/><circle cx="1127.1" cy="851.3" r="1.19" fill="#ffffff" opacity="0.63"/><circle cx="119.2" cy="677.7" r="1.04" fill="#ffffff" opacity="0.31"/><circle cx="538.7" cy="256.0" r="0.80" fill="#ffffff" opacity="0.34"/><circle cx="787.1" cy="374.4" r="1.23" fill="#ffffff" opacity="0.51"/><circle cx="1585.0" cy="39.3" r="1.21" fill="#e3d5ff" opacity="0.39"/></g>
<g><circle cx="1504.6" cy="20.0" r="1.37" fill="#ffffff" opacity="0.54"/><circle cx="1104.7" cy="330.7" r="1.00" fill="#ffffff" opacity="0.36"/><circle cx="1444.1" cy="111.4" r="1.73" fill="#ffffff" opacity="0.68"/><circle cx="1104.6" cy="273.6" r="1.00" fill="#ffffff" opacity="0.26"/><circle cx="555.5" cy="697.4" r="1.00" fill="#ffffff" opacity="0.30"/><circle cx="152.8" cy="921.0" r="0.93" fill="#ffffff" opacity="0.72"/><circle cx="909.3" cy="456.8" r="0.92" fill="#ffffff" opacity="0.38"/><circle cx="1248.6" cy="274.1" r="1.51" fill="#e3d5ff" opacity="0.58"/><circle cx="987.1" cy="343.9" r="1.00" fill="#ffffff" opacity="0.39"/><circle cx="1213.3" cy="254.9" r="1.11" fill="#cfe0ff" opacity="0.69"/><circle cx="1598.0" cy="185.0" r="0.97" fill="#ffffff" opacity="0.66"/><circle cx="1343.8" cy="213.5" r="1.34" fill="#ffffff" opacity="0.46"/><circle cx="1231.6" cy="237.8" r="1.65" fill="#ffffff" opacity="0.49"/><circle cx="1578.2" cy="192.2" r="1.50" fill="#ffffff" opacity="0.41"/><circle cx="1380.4" cy="199.1" r="1.67" fill="#cfe0ff" opacity="0.61"/><circle cx="1000.3" cy="479.7" r="1.00" fill="#ffffff" opacity="0.48"/><circle cx="539.3" cy="691.0" r="1.00" fill="#ffffff" opacity="0.50"/><circle cx="988.0" cy="357.1" r="0.75" fill="#ffffff" opacity="0.41"/><circle cx="50.9" cy="978.4" r="1.72" fill="#cfe0ff" opacity="0.51"/><circle cx="1508.8" cy="75.0" r="1.66" fill="#ffffff" opacity="0.57"/><circle cx="1359.7" cy="199.3" r="1.34" fill="#ffffff" opacity="0.67"/><circle cx="863.3" cy="445.2" r="1.00" fill="#ffffff" opacity="0.35"/><circle cx="2.0" cy="875.1" r="1.23" fill="#cfe0ff" opacity="0.52"/><circle cx="525.0" cy="775.9" r="1.00" fill="#e3d5ff" opacity="0.31"/><circle cx="264.1" cy="833.0" r="1.59" fill="#ffe3c4" opacity="0.52"/><circle cx="1470.4" cy="187.8" r="1.48" fill="#ffffff" opacity="0.59"/><circle cx="924.9" cy="455.9" r="1.00" fill="#ffffff" opacity="0.39"/><circle cx="914.7" cy="603.5" r="1.00" fill="#ffffff" opacity="0.26"/><circle cx="1355.5" cy="337.6" r="0.56" fill="#ffe3c4" opacity="0.59"/><circle cx="1452.3" cy="131.7" r="0.95" fill="#ffffff" opacity="0.43"/><circle cx="1467.0" cy="140.7" r="1.83" fill="#ffffff" opacity="0.40"/><circle cx="459.0" cy="738.4" r="1.63" fill="#ffffff" opacity="0.60"/><circle cx="767.9" cy="602.8" r="1.00" fill="#ffffff" opacity="0.30"/><circle cx="799.0" cy="623.8" r="1.00" fill="#ffffff" opacity="0.25"/><circle cx="69.1" cy="894.9" r="0.81" fill="#e3d5ff" opacity="0.48"/><circle cx="856.3" cy="495.3" r="1.00" fill="#ffffff" opacity="0.37"/><circle cx="1221.9" cy="286.5" r="1.61" fill="#ffffff" opacity="0.45"/><circle cx="448.6" cy="715.3" r="1.31" fill="#ffffff" opacity="0.45"/><circle cx="520.3" cy="755.2" r="0.86" fill="#ffffff" opacity="0.40"/><circle cx="1393.3" cy="125.5" r="1.43" fill="#ffffff" opacity="0.46"/><circle cx="489.4" cy="741.5" r="1.00" fill="#cfe0ff" opacity="0.52"/><circle cx="939.9" cy="466.0" r="1.00" fill="#ffffff" opacity="0.36"/><circle cx="510.5" cy="708.4" r="1.00" fill="#ffffff" opacity="0.34"/><circle cx="59.7" cy="976.0" r="1.16" fill="#e3d5ff" opacity="0.78"/><circle cx="1397.2" cy="189.4" r="1.83" fill="#cfe0ff" opacity="0.40"/><circle cx="992.1" cy="422.4" r="1.00" fill="#ffffff" opacity="0.52"/><circle cx="1300.3" cy="267.3" r="1.53" fill="#ffffff" opacity="0.57"/><circle cx="1149.7" cy="327.3" r="1.08" fill="#ffffff" opacity="0.62"/><circle cx="107.7" cy="975.5" r="1.31" fill="#ffffff" opacity="0.81"/><circle cx="600.6" cy="681.6" r="1.00" fill="#ffffff" opacity="0.35"/><circle cx="103.3" cy="949.9" r="0.97" fill="#cfe0ff" opacity="0.58"/><circle cx="1172.0" cy="449.0" r="1.00" fill="#ffffff" opacity="0.53"/><circle cx="54.4" cy="988.0" r="1.79" fill="#ffffff" opacity="0.75"/><circle cx="720.0" cy="576.7" r="1.00" fill="#ffffff" opacity="0.24"/><circle cx="580.6" cy="695.3" r="1.00" fill="#ffffff" opacity="0.53"/><circle cx="557.9" cy="685.8" r="1.00" fill="#ffe3c4" opacity="0.40"/><circle cx="640.3" cy="631.3" r="1.00" fill="#ffffff" opacity="0.39"/><circle cx="656.7" cy="618.0" r="1.00" fill="#ffffff" opacity="0.42"/><circle cx="1207.7" cy="266.1" r="1.60" fill="#ffffff" opacity="0.40"/><circle cx="154.4" cy="827.5" r="1.28" fill="#ffffff" opacity="0.48"/><circle cx="635.6" cy="640.6" r="1.00" fill="#cfe0ff" opacity="0.43"/><circle cx="1199.6" cy="299.4" r="0.91" fill="#cfe0ff" opacity="0.74"/><circle cx="533.9" cy="717.7" r="1.00" fill="#ffffff" opacity="0.36"/><circle cx="685.7" cy="633.9" r="1.00" fill="#ffffff" opacity="0.28"/><circle cx="264.2" cy="835.6" r="1.81" fill="#ffffff" opacity="0.67"/><circle cx="1282.7" cy="203.1" r="1.22" fill="#ffe3c4" opacity="0.53"/><circle cx="840.4" cy="648.3" r="1.00" fill="#ffe3c4" opacity="0.33"/><circle cx="1301.2" cy="251.4" r="1.02" fill="#ffffff" opacity="0.82"/><circle cx="532.2" cy="695.5" r="1.00" fill="#ffffff" opacity="0.33"/><circle cx="1311.7" cy="203.3" r="1.05" fill="#ffffff" opacity="0.67"/><circle cx="1014.7" cy="320.4" r="1.00" fill="#ffffff" opacity="0.29"/><circle cx="305.5" cy="743.7" r="0.94" fill="#ffffff" opacity="0.43"/><circle cx="1301.0" cy="235.4" r="1.34" fill="#cfe0ff" opacity="0.49"/><circle cx="795.3" cy="548.5" r="0.98" fill="#ffffff" opacity="0.23"/><circle cx="951.8" cy="435.2" r="1.00" fill="#ffffff" opacity="0.33"/><circle cx="125.0" cy="940.9" r="1.86" fill="#ffffff" opacity="0.43"/><circle cx="788.1" cy="549.9" r="1.00" fill="#ffffff" opacity="0.48"/><circle cx="391.0" cy="755.5" r="0.97" fill="#ffffff" opacity="0.42"/><circle cx="228.6" cy="794.1" r="0.96" fill="#ffffff" opacity="0.46"/><circle cx="1556.5" cy="104.6" r="0.97" fill="#cfe0ff" opacity="0.80"/><circle cx="1519.7" cy="108.8" r="1.30" fill="#ffe3c4" opacity="0.78"/><circle cx="74.2" cy="961.2" r="1.28" fill="#ffffff" opacity="0.56"/><circle cx="1543.5" cy="94.7" r="1.65" fill="#ffffff" opacity="0.39"/><circle cx="1484.9" cy="167.6" r="0.78" fill="#ffffff" opacity="0.39"/></g>
<ellipse cx="800" cy="520" rx="620" ry="330" fill="url(#vig)"/>
<g><circle cx="416.9" cy="75.7" r="11.6" fill="url(#halo)" opacity="0.26"/><circle cx="416.9" cy="75.7" r="1.66" fill="#ffe3c4" opacity="0.82"/><circle cx="1301.3" cy="179.8" r="13.9" fill="url(#halo)" opacity="0.26"/><circle cx="1301.3" cy="179.8" r="1.98" fill="#ffffff" opacity="0.75"/><circle cx="339.0" cy="566.0" r="9.9" fill="url(#halo)" opacity="0.26"/><circle cx="339.0" cy="566.0" r="1.42" fill="#ffffff" opacity="0.75"/><circle cx="1072.6" cy="990.1" r="1.42" fill="#e3d5ff" opacity="0.77"/><circle cx="230.1" cy="884.6" r="1.53" fill="#ffffff" opacity="0.67"/><circle cx="1220.2" cy="783.8" r="1.40" fill="#ffffff" opacity="0.78"/><circle cx="8.3" cy="971.2" r="1.35" fill="#ffffff" opacity="0.75"/><circle cx="1583.2" cy="636.4" r="2.12" fill="#ffffff" opacity="0.82"/><circle cx="1164.1" cy="654.5" r="1.31" fill="#ffffff" opacity="0.76"/><circle cx="1330.1" cy="469.1" r="2.27" fill="#ffffff" opacity="0.69"/><circle cx="1466.9" cy="859.9" r="1.62" fill="#ffffff" opacity="0.78"/></g>
<g opacity="0.55"><circle cx="123" cy="136" r="16" fill="url(#halo)" opacity="0.55"/><path d="M108 136H138M123 121V151" stroke="#ffffff" stroke-width="0.9" opacity="0.6"/><circle cx="123" cy="136" r="1.7" fill="#ffffff"/></g><g opacity="0.55"><circle cx="1515" cy="839" r="16" fill="url(#halo)" opacity="0.55"/><path d="M1502 839H1528M1515 826V852" stroke="#ffffff" stroke-width="0.9" opacity="0.6"/><circle cx="1515" cy="839" r="1.7" fill="#ffffff"/></g><g opacity="0.55"><circle cx="203" cy="843" r="16" fill="url(#halo)" opacity="0.55"/><path d="M192 843H214M203 832V854" stroke="#ffffff" stroke-width="0.9" opacity="0.6"/><circle cx="203" cy="843" r="1.7" fill="#ffffff"/></g>
</svg>