<svg xmlns="http://www.w3.org/2000/svg" viewBox="0 0 1600 140" preserveAspectRatio="xMidYMid slice">
<defs>
<linearGradient id="sky" x1="0.1" y1="0" x2="0.22" y2="1">
<stop offset="0" stop-color="#0a0c24"/><stop offset="0.42" stop-color="#171040"/>
<stop offset="0.75" stop-color="#281b52"/><stop offset="1" stop-color="#3a2a6a"/>
</linearGradient>
<radialGradient id="mw" cx="0.5" cy="0.5" r="0.5"><stop offset="0" stop-color="#c3cbff" stop-opacity="0.17"/><stop offset="0.55" stop-color="#b9c0ff" stop-opacity="0.08"/><stop offset="1" stop-color="#b9c0ff" stop-opacity="0"/></radialGradient>
<radialGradient id="core" cx="0.5" cy="0.5" r="0.5"><stop offset="0" stop-color="#ffe9d9" stop-opacity="0.22"/><stop offset="0.4" stop-color="#e8d5ff" stop-opacity="0.12"/><stop offset="1" stop-color="#e8d5ff" stop-opacity="0"/></radialGradient>
<radialGradient id="neb1" cx="0.5" cy="0.5" r="0.5"><stop offset="0" stop-color="#7d5be0" stop-opacity="0.34"/><stop offset="1" stop-color="#7d5be0" stop-opacity="0"/></radialGradient>
<radialGradient id="neb2" cx="0.5" cy="0.5" r="0.5"><stop offset="0" stop-color="#c15aa6" stop-opacity="0.3"/><stop offset="1" stop-color="#c15aa6" stop-opacity="0"/></radialGradient>
<radialGradient id="halo" cx="0.5" cy="0.5" r="0.5"><stop offset="0" stop-color="#ffffff" stop-opacity="0.9"/><stop offset="1" stop-color="#ffffff" stop-opacity="0"/></radialGradient>
<radialGradient id="vig" cx="0.5" cy="0.5" r="0.5"><stop offset="0" stop-color="#070818" stop-opacity="0.42"/><stop offset="0.6" stop-color="#070818" stop-opacity="0.25"/><stop offset="1" stop-color="#070818" stop-opacity="0"/></radialGradient>
<filter id="b" x="-40%" y="-40%" width="180%" height="180%"><feGaussianBlur stdDeviation="28"/></filter>
</defs>

<g filter="url(#b)">
<ellipse cx="1450" cy="21" rx="300" ry="130" fill="url(#mw)" opacity="0.89" transform="rotate(-4.8 1450 21)"/><ellipse cx="1154" cy="46" rx="260" ry="95" fill="url(#mw)" opacity="0.53" transform="rotate(-4.8 1154 46)"/><ellipse cx="786" cy="76" rx="250" ry="90" fill="url(#mw)" opacity="0.32" transform="rotate(-4.8 786 76)"/><ellipse cx="447" cy="104" rx="250" ry="90" fill="url(#mw)" opacity="0.47" transform="rotate(-4.8 447 104)"/><ellipse cx="137" cy="130" rx="260" ry="110" fill="url(#mw)" opacity="0.63" transform="rotate(-4.8 137 130)"/><ellipse cx="1493" cy="18" rx="230" ry="150" fill="url(#core)" opacity="0.79"/><ellipse cx="1267" cy="62" rx="230" ry="26" fill="#0a0a20" opacity="0.26" transform="rotate(-4.8 1267 62)"/>
<ellipse cx="213" cy="120" rx="260" ry="190" fill="url(#neb1)"/>
<ellipse cx="1347" cy="38" rx="240" ry="170" fill="url(#neb2)"/>
<ellipse cx="453" cy="23" rx="190" ry="120" fill="url(#neb1)" opacity="0.5"/>
</g>
<g><circle cx="681.3" cy="7.7" r="0.73" fill="#ffffff" opacity="0.25"/><circle cx="1320.5" cy="122.1" r="0.78" fill="#ffffff" opacity="0.28"/><circle cx="1453.1" cy="81.4" r="0.62" fill="#ffffff" opacity="0.37"/><circle cx="87.7" cy="19.7" r="0.39" fill="#ffffff" opacity="0.40"/><circle cx="1560.6" cy="9.8" r="0.51" fill="#ffffff" opacity="0.26"/><circle cx="333.7" cy="31.6" r="0.35" fill="#cfe0ff" opacity="0.40"/><circle cx="761.8" cy="84.4" r="0.52" fill="#ffffff" opacity="0.43"/><circle cx="442.2" cy="98.5" r="0.59" fill="#ffffff" opacity="0.43"/><circle cx="639.9" cy="17.8" r="0.52" fill="#ffffff" opacity="0.21"/><circle cx="1487.4" cy="19.2" r="0.85" fill="#ffffff" opacity="0.51"/><circle cx="509.0" cy="53.2" r="0.50" fill="#ffffff" opacity="0.52"/><circle cx="662.6" cy="54.9" r="0.66" fill="#ffffff" opacity="0.49"/><circle cx="599.8" cy="57.9" r="0.54" fill="#ffffff" opacity="0.44"/><circle cx="872.4" cy="111.9" r="0.63" fill="#ffffff" opacity="0.40"/><circle cx="572.1" cy="66.0" r="0.68" fill="#ffffff" opacity="0.34"/><circle cx="728.6" cy="12.2" r="0.41" fill="#ffffff" opacity="0.36"/><circle cx="496.2" cy="61.3" r="0.48" fill="#ffffff" opacity="0.44"/><circle cx="91.3" cy="63.4" r="0.80" fill="#ffffff" opacity="0.41"/><circle cx="949.3" cy="45.2" r="0.79" fill="#ffffff" opacity="0.57"/><circle cx="465.9" cy="3.3" r="0.79" fill="#ffffff" opacity="0.22"/><circle cx="652.3" cy="3.6" r="0.80" fill="#ffffff" opacity="0.24"/><circle cx="1056.8" cy="50.8" r="0.40" fill="#ffffff" opacity="0.25"/><circle cx="414.0" cy="112.4" r="0.79" fill="#ffffff" opacity="0.40"/><circle cx="1523.3" cy="71.7" r="0.80" fill="#ffffff" opacity="0.40"/><circle cx="372.7" cy="3.3" r="0.48" fill="#ffffff" opacity="0.38"/><circle cx="1157.7" cy="106.2" r="0.77" fill="#ffffff" opacity="0.28"/><circle cx="1248.5" cy="48.6" r="0.65" fill="#ffffff" opacity="0.22"/><circle cx="1476.6" cy="33.0" r="0.56" fill="#cfe0ff" opacity="0.25"/><circle cx="1240.8" cy="125.2" r="0.80" fill="#ffffff" opacity="0.31"/><circle cx="1020.1" cy="129.3" r="0.75" fill="#ffffff" opacity="0.42"/><circle cx="120.7" cy="55.8" r="0.87" fill="#ffffff" opacity="0.44"/><circle cx="595.7" cy="103.1" r="0.58" fill="#ffe3c4" opacity="0.57"/><circle cx="1389.0" cy="82.8" r="0.51" fill="#ffffff" opacity="0.39"/><circle cx="916.6" cy="123.7" r="0.74" fill="#ffffff" opacity="0.42"/><circle cx="361.6" cy="97.1" r="0.44" fill="#cfe0ff" opacity="0.32"/><circle cx="120.1" cy="96.0" r="0.79" fill="#ffffff" opacity="0.38"/><circle cx="818.3" cy="110.9" r="0.60" fill="#ffffff" opacity="0.45"/><circle cx="340.2" cy="131.2" r="0.52" fill="#ffe3c4" opacity="0.28"/><circle cx="173.1" cy="31.2" r="0.61" fill="#ffffff" opacity="0.43"/><circle cx="457.2" cy="62.4" r="0.79" fill="#ffffff" opacity="0.43"/><circle cx="332.6" cy="8.6" r="0.61" fill="#e3d5ff" opacity="0.27"/><circle cx="128.5" cy="30.2" r="0.50" fill="#ffffff" opacity="0.22"/><circle cx="1449.9" cy="9.8" r="0.42" fill="#ffe3c4" opacity="0.43"/><circle cx="501.8" cy="101.9" r="0.89" fill="#ffffff" opacity="0.51"/><circle cx="624.9" cy="103.6" r="0.71" fill="#ffe3c4" opacity="0.25"/><circle cx="294.6" cy="65.5" r="0.86" fill="#ffffff" opacity="0.46"/><circle cx="917.7" cy="117.2" r="0.76" fill="#ffffff" opacity="0.55"/><circle cx="1130.3" cy="34.8" r="0.45" fill="#ffffff" opacity="0.23"/><circle cx="855.0" cy="15.4" r="0.70" fill="#ffffff" opacity="0.48"/><circle cx="921.3" cy="35.9" r="0.76" fill="#ffffff" opacity="0.54"/><circle cx="645.8" cy="104.4" r="0.56" fill="#ffffff" opacity="0.24"/><circle cx="356.8" cy="76.1" r="0.59" fill="#ffffff" opacity="0.27"/><circle cx="904.8" cy="75.4" r="0.44" fill="#ffffff" opacity="0.50"/><circle cx="1258.4" cy="109.9" r="0.71" fill="#e3d5ff" opacity="0.35"/><circle cx="258.7" cy="132.3" r="0.89" fill="#ffe3c4" opacity="0.44"/><circle cx="842.8" cy="62.2" r="0.49" fill="#ffffff" opacity="0.29"/><circle cx="1310.2" cy="26.4" r="0.80" fill="#ffffff" opacity="0.38"/><circle cx="154.6" cy="20.2" r="0.87" fill="#e3d5ff" opacity="0.44"/><circle cx="685.4" cy="37.3" r="0.42" fill="#ffffff" opacity="0.56"/><circle cx="182.4" cy="48.8" r="0.46" fill="#ffffff" opacity="0.30"/><circle cx="1469.4" cy="41.9" r="0.64" fill="#ffffff" opacity="0.51"/><circle cx="1084.0" cy="36.8" r="0.46" fill="#ffe3c4" opacity="0.46"/><circle cx="838.8" cy="26.7" r="0.53" fill="#cfe0ff" opacity="0.22"/><circle cx="1508.5" cy="133.1" r="0.48" fill="#ffffff" opacity="0.50"/><circle cx="504.0" cy="38.2" r="0.70" fill="#ffffff" opacity="0.44"/><circle cx="138.9" cy="104.1" r="0.74" fill="#ffffff" opacity="0.51"/><circle cx="1114.7" cy="58.1" r="0.84" fill="#ffffff" opacity="0.56"/><circle cx="1248.6" cy="117.1" r="0.85" fill="#e3d5ff" opacity="0.49"/><circle cx="429.3" cy="22.3" r="0.45" fill="#ffe3c4" opacity="0.48"/><circle cx="915.3" cy="130.7" r="0.70" fill="#ffffff" opacity="0.50"/><circle cx="1502.4" cy="109.2" r="0.67" fill="#ffe3c4" opacity="0.28"/><circle cx="434.6" cy="75.8" r="0.55" fill="#ffe3c4" opacity="0.27"/><circle cx="496.7" cy="11.4" r="0.38" fill="#ffffff" opacity="0.46"/><circle cx="252.5" cy="18.3" r="0.44" fill="#ffffff" opacity="0.24"/><circle cx="1348.6" cy="25.3" r="0.61" fill="#cfe0ff" opacity="0.26"/><circle cx="338.5" cy="23.6" r="0.44" fill="#ffe3c4" opacity="0.55"/><circle cx="772.1" cy="86.6" r="0.65" fill="#ffe3c4" opacity="0.30"/><circle cx="996.5" cy="56.9" r="0.63" fill="#ffffff" opacity="0.49"/><circle cx="905.2" cy="84.8" r="0.61" fill="#ffffff" opacity="0.44"/><circle cx="211.2" cy="45.5" r="0.89" fill="#ffffff" opacity="0.44"/><circle cx="725.0" cy="39.6" r="0.40" fill="#ffffff" opacity="0.25"/><circle cx="601.5" cy="79.7" r="0.74" fill="#ffffff" opacity="0.45"/><circle cx="953.7" cy="99.4" r="0.72" fill="#ffffff" opacity="0.36"/><circle cx="1039.9" cy="48.6" r="1.14" fill="#ffffff" opacity="0.77"/><circle cx="1094.1" cy="23.0" r="1.17" fill="#ffffff" opacity="0.75"/><circle cx="1578.5" cy="32.7" r="0.92" fill="#cfe0ff" opacity="0.58"/><circle cx="1518.7" cy="58.6" r="1.15" fill="#ffffff" opacity="0.39"/><circle cx="922.1" cy="32.7" r="1.08" fill="#ffffff" opacity="0.40"/><circle cx="28.3" cy="81.6" r="0.74" fill="#ffffff" opacity="0.60"/><circle cx="457.8" cy="54.7" r="1.20" fill="#ffffff" opacity="0.59"/><circle cx="573.0" cy="94.9" r="0.94" fill="#ffffff" opacity="0.76"/><circle cx="718.4" cy="134.6" r="0.92" fill="#cfe0ff" opacity="0.58"/><circle cx="1015.4" cy="136.8" r="0.95" fill="#ffffff" opacity="0.52"/><circle cx="722.1" cy="42.6" r="0.97" fill="#ffffff" opacity="0.77"/><circle cx="1048.2" cy="128.3" r="1.14" fill="#cfe0ff" opacity="0.73"/><circle cx="3.5" cy="70.4" r="0.86" fill="#cfe0ff" opacity="0.56"/><circle cx="635.8" cy="123.7" r="0.95" fill="#ffffff" opacity="0.46"/><circle cx="1388.6" cy="118.5" r="1.10" fill="#ffffff" opacity="0.70"/><circle cx="634.2" cy="87.1" r="1.17" fill="#e3d5ff" opacity="0.66"/><circle cx="214.8" cy="66.9" r="0.74" fill="#ffffff" opacity="0.38"/><circle cx="822.6" cy="134.4" r="1.12" fill="#ffffff" opacity="0.42"/><circle cx="127.6" cy="127.0" r="1.16" fill="#ffffff" opacity="0.48"/><circle cx="520.4" cy="9.9" r="1.10" fill="#ffffff" opacity="0.74"/><circle cx="73.5" cy="35.0" r="1.23" fill="#ffffff" opacity="0.37"/><circle cx="445.3" cy="69.4" r="1.04" fill="#ffffff" opacity="0.37"/><circle cx="46.8" cy="52.2" r="0.93" fill="#ffffff" opacity="0.69"/><circle cx="208.9" cy="74.5" r="0.94" fill="#ffffff" opacity="0.76"/><circle cx="783.2" cy="9.3" r="0.77" fill="#ffffff" opacity="0.62"/><circle cx="1241.7" cy="75.3" r="0.81" fill="#ffffff" opacity="0.72"/><circle cx="725.9" cy="33.6" r="0.88" fill="#ffffff" opacity="0.77"/><circle cx="1498.4" cy="61.5" r="1.23" fill="#cfe0ff" opacity="0.52"/><circle cx="495.5" cy="71.6" r="1.00" fill="#ffe3c4" opacity="0.40"/><circle cx="699.2" cy="12.7" r="1.12" fill="#e3d5ff" opacity="0.73"/><circle cx="773.8" cy="85.7" r="0.71" fill="#ffffff" opacity="0.42"/><circle cx="1414.7" cy="125.1" r="1.25" fill="#e3d5ff" opacity="0.57"/><circle cx="1086.6" cy="51.7" r="1.06" fill="#cfe0ff" opacity="0.44"/><circle cx="971.0" cy="116.8" r="0.94" fill="#ffffff" opacity="0.48"/><circle cx="1340.3" cy="7.2" r="0.76" fill="#ffffff" opacity="0.51"/><circle cx="598.8" cy="42.0" r="1.20" fill="#ffffff" opacity="0.78"/><circle cx="363.4" cy="11.2" r="0.77" fill="#ffe3c4" opacity="0.56"/><circle cx="1404.3" cy="54.8" r="1.02" fill="#ffffff" opacity="0.57"/><circle cx="336.5" cy="130.9" r="1.09" fill="#ffffff" opacity="0.50"/><circle cx="1568.6" cy="76.8" r="1.03" fill="#ffffff" opacity="0.53"/><circle cx="511.4" cy="95.8" r="0.71" fill="#cfe0ff" opacity="0.73"/></g>
<g><circle cx="792.7" cy="138.0" r="1.19" fill="#ffe3c4" opacity="0.93"/><circle cx="190.2" cy="138.0" r="1.37" fill="#cfe0ff" opacity="0.72"/><circle cx="1158.5" cy="45.3" r="1.00" fill="#ffffff" opacity="0.68"/><circle cx="1034.7" cy="58.6" r="1.00" fill="#ffffff" opacity="0.56"/><circle cx="1180.5" cy="43.6" r="1.00" fill="#ffffff" opacity="0.48"/><circle cx="1305.1" cy="2.0" r="0.99" fill="#ffffff" opacity="0.50"/><circle cx="1245.3" cy="21.2" r="1.33" fill="#e3d5ff" opacity="0.64"/><circle cx="1467.7" cy="20.0" r="1.32" fill="#ffffff" opacity="0.78"/><circle cx="1424.5" cy="22.3" r="1.59" fill="#ffffff" opacity="0.51"/><circle cx="1227.0" cy="45.2" r="1.00" fill="#ffffff" opacity="0.46"/><circle cx="1059.1" cy="2.0" r="0.77" fill="#ffe3c4" opacity="0.55"/><circle cx="74.9" cy="132.1" r="1.16" fill="#ffffff" opacity="0.68"/><circle cx="768.6" cy="35.0" r="0.76" fill="#ffffff" opacity="0.46"/><circle cx="1080.6" cy="42.4" r="1.00" fill="#ffffff" opacity="0.62"/><circle cx="1226.2" cy="32.6" r="1.00" fill="#ffffff" opacity="0.50"/><circle cx="673.4" cy="2.0" r="1.25" fill="#ffffff" opacity="0.54"/><circle cx="1237.4" cy="38.8" r="1.00" fill="#ffffff" opacity="0.48"/><circle cx="1029.7" cy="2.0" r="1.03" fill="#ffffff" opacity="0.70"/><circle cx="710.4" cy="85.8" r="1.00" fill="#ffffff" opacity="0.50"/><circle cx="1112.3" cy="49.5" r="0.91" fill="#ffffff" opacity="0.51"/><circle cx="740.8" cy="81.9" r="1.00" fill="#ffffff" opacity="0.58"/><circle cx="716.5" cy="82.0" r="1.00" fill="#ffffff" opacity="0.31"/><circle cx="566.2" cy="77.6" r="1.00" fill="#ffffff" opacity="0.38"/><circle cx="588.1" cy="20.1" r="1.34" fill="#ffffff" opacity="0.49"/><circle cx="1503.9" cy="15.8" r="1.83" fill="#ffffff" opacity="0.94"/><circle cx="1430.9" cy="16.6" r="1.08" fill="#ffe3c4" opacity="0.56"/><circle cx="1270.7" cy="2.0" r="0.96" fill="#ffffff" opacity="0.52"/><circle cx="199.9" cy="138.0" r="0.44" fill="#cfe0ff" opacity="0.88"/><circle cx="191.9" cy="125.4" r="1.84" fill="#ffffff" opacity="0.76"/><circle cx="1094.4" cy="27.4" r="1.50" fill="#ffffff" opacity="0.56"/><circle cx="553.8" cy="76.5" r="1.00" fill="#cfe0ff" opacity="0.40"/><circle cx="48.7" cy="88.2" r="1.06" fill="#ffffff" opacity="0.66"/><circle cx="707.7" cy="82.8" r="1.00" fill="#cfe0ff" opacity="0.55"/><circle cx="418.6" cy="106.3" r="1.00" fill="#ffffff" opacity="0.75"/><circle cx="83.0" cy="138.0" r="1.68" fill="#ffffff" opacity="0.45"/><circle cx="29.7" cy="86.9" r="1.49" fill="#ffffff" opacity="0.84"/><circle cx="257.5" cy="138.0" r="1.75" fill="#cfe0ff" opacity="0.97"/><circle cx="1496.0" cy="16.0" r="1.50" fill="#cfe0ff" opacity="0.64"/><circle cx="1152.2" cy="2.0" r="1.08" fill="#ffe3c4" opacity="0.77"/><circle cx="70.5" cy="138.0" r="1.40" fill="#ffffff" opacity="0.62"/><circle cx="216.6" cy="123.9" r="1.23" fill="#ffffff" opacity="0.49"/><circle cx="419.9" cy="138.0" r="1.33" fill="#ffffff" opacity="0.59"/><circle cx="915.8" cy="138.0" r="1.11" fill="#ffe3c4" opacity="0.54"/><circle cx="1312.2" cy="37.9" r="1.00" fill="#ffffff" opacity="0.78"/><circle cx="268.6" cy="124.9" r="1.22" fill="#ffffff" opacity="0.62"/><circle cx="1035.5" cy="45.9" r="1.00" fill="#ffffff" opacity="0.53"/><circle cx="894.7" cy="72.6" r="1.00" fill="#cfe0ff" opacity="0.52"/><circle cx="1092.7" cy="49.8" r="1.00" fill="#ffffff" opacity="0.34"/><circle cx="1544.9" cy="13.4" r="1.11" fill="#e3d5ff" opacity="0.87"/><circle cx="1487.0" cy="60.9" r="1.46" fill="#ffffff" opacity="0.69"/><circle cx="1548.6" cy="12.9" r="1.01" fill="#ffffff" opacity="0.99"/><circle cx="1462.3" cy="2.0" r="0.64" fill="#ffffff" opacity="0.65"/><circle cx="1246.1" cy="2.0" r="1.19" fill="#ffe3c4" opacity="0.42"/><circle cx="1446.8" cy="138.0" r="1.14" fill="#ffe3c4" opacity="0.35"/><circle cx="1419.0" cy="48.0" r="1.04" fill="#cfe0ff" opacity="0.76"/><circle cx="1352.6" cy="2.0" r="1.29" fill="#ffffff" opacity="0.82"/><circle cx="1396.1" cy="138.0" r="1.03" fill="#ffffff" opacity="0.60"/><circle cx="1000.6" cy="58.4" r="1.00" fill="#ffffff" opacity="0.51"/><circle cx="554.1" cy="91.8" r="1.00" fill="#ffffff" opacity="0.58"/><circle cx="1285.2" cy="11.6" r="0.91" fill="#ffffff" opacity="0.94"/><circle cx="1224.8" cy="2.0" r="0.98" fill="#ffffff" opacity="0.44"/><circle cx="277.5" cy="117.8" r="1.59" fill="#ffffff" opacity="0.73"/><circle cx="438.6" cy="114.9" r="1.15" fill="#ffffff" opacity="0.52"/><circle cx="90.2" cy="97.0" r="1.63" fill="#e3d5ff" opacity="0.70"/><circle cx="469.8" cy="14.7" r="1.39" fill="#ffffff" opacity="0.61"/><circle cx="1277.6" cy="10.1" r="1.20" fill="#ffffff" opacity="1.00"/><circle cx="24.5" cy="134.2" r="1.76" fill="#ffffff" opacity="0.86"/><circle cx="429.3" cy="2.0" r="1.00" fill="#ffffff" opacity="0.86"/><circle cx="1082.2" cy="57.5" r="1.00" fill="#ffffff" opacity="0.45"/><circle cx="1232.3" cy="39.2" r="1.00" fill="#ffffff" opacity="0.75"/><circle cx="440.0" cy="138.0" r="1.56" fill="#e3d5ff" opacity="0.96"/><circle cx="1099.8" cy="138.0" r="1.14" fill="#ffe3c4" opacity="0.57"/><circle cx="387.4" cy="109.4" r="1.00" fill="#ffffff" opacity="0.53"/><circle cx="220.1" cy="138.0" r="1.50" fill="#ffffff" opacity="0.49"/><circle cx="524.3" cy="138.0" r="1.28" fill="#e3d5ff" opacity="0.45"/><circle cx="1252.4" cy="2.0" r="1.62" fill="#ffffff" opacity="0.56"/><circle cx="708.8" cy="83.7" r="1.00" fill="#ffffff" opacity="0.39"/><circle cx="326.8" cy="123.9" r="1.20" fill="#cfe0ff" opacity="0.99"/><circle cx="1173.5" cy="71.0" r="1.00" fill="#ffffff" opacity="0.50"/><circle cx="1197.4" cy="41.8" r="1.00" fill="#cfe0ff" opacity="0.52"/><circle cx="1368.0" cy="27.9" r="1.58" fill="#ffffff" opacity="0.87"/><circle cx="308.1" cy="138.0" r="1.17" fill="#ffffff" opacity="0.80"/><circle cx="29.5" cy="132.6" r="1.32" fill="#ffffff" opacity="0.61"/><circle cx="662.8" cy="78.0" r="0.91" fill="#ffffff" opacity="0.50"/><circle cx="1254.6" cy="67.2" r="1.00" fill="#ffffff" opacity="0.56"/><circle cx="1510.1" cy="26.9" r="1.58" fill="#ffffff" opacity="0.89"/><circle cx="981.6" cy="2.0" r="0.79" fill="#e3d5ff" opacity="0.68"/><circle cx="899.0" cy="62.4" r="1.00" fill="#ffe3c4" opacity="0.56"/><circle cx="1452.4" cy="121.6" r="1.17" fill="#e3d5ff" opacity="0.56"/><circle cx="709.9" cy="54.9" r="0.99" fill="#ffffff" opacity="0.33"/></g>

<g><circle cx="937.8" cy="117.8" r="12.6" fill="url(#halo)" opacity="0.32"/><circle cx="937.8" cy="117.8" r="1.79" fill="#e3d5ff" opacity="1.00"/><circle cx="84.1" cy="102.0" r="15.4" fill="url(#halo)" opacity="0.32"/><circle cx="84.1" cy="102.0" r="2.21" fill="#ffffff" opacity="0.82"/><circle cx="1538.9" cy="45.5" r="13.9" fill="url(#halo)" opacity="0.32"/><circle cx="1538.9" cy="45.5" r="1.98" fill="#cfe0ff" opacity="0.99"/><circle cx="439.1" cy="19.9" r="1.47" fill="#ffe3c4" opacity="1.00"/><circle cx="788.9" cy="119.5" r="1.45" fill="#ffffff" opacity="0.87"/><circle cx="1476.4" cy="118.2" r="1.73" fill="#ffffff" opacity="0.89"/><circle cx="1165.0" cy="12.2" r="1.75" fill="#ffffff" opacity="0.90"/><circle cx="1398.5" cy="70.4" r="1.80" fill="#cfe0ff" opacity="0.92"/><circle cx="1428.1" cy="130.2" r="1.39" fill="#ffffff" opacity="0.94"/><circle cx="383.8" cy="122.3" r="1.51" fill="#ffffff" opacity="0.79"/><circle cx="203.5" cy="122.2" r="2.12" fill="#ffffff" opacity="0.88"/><circle cx="756.9" cy="28.8" r="1.45" fill="#ffffff" opacity="0.79"/></g>
<g opacity="0.68"><circle cx="123" cy="19" r="16" fill="url(#halo)" opacity="0.55"/><path d="M108 19H138M123 4V34" stroke="#ffffff" stroke-width="0.9" opacity="0.6"/><circle cx="123" cy="19" r="1.7" fill="#ffffff"/></g><g opacity="0.68"><circle cx="1515" cy="117" r="16" fill="url(#halo)" opacity="0.55"/><path d="M1502 117H1528M1515 104V130" stroke="#ffffff" stroke-width="0.9" opacity="0.6"/><circle cx="1515" cy="117" r="1.7" fill="#ffffff"/></g><g opacity="0.68"><circle cx="203" cy="118" r="16" fill="url(#halo)" opacity="0.55"/><path d="M192 118H214M203 107V129" stroke="#ffffff" stroke-width="0.9" opacity="0.6"/><circle cx="203" cy="118" r="1.7" fill="#ffffff"/></g>
</svg>