<svg xmlns="http://www.w3.org/2000/svg" viewBox="0 0 260 1400" preserveAspectRatio="xMidYMid slice">
<defs>
<linearGradient id="sky" x1="0.1" y1="0" x2="0.22" y2="1">
<stop offset="0" stop-color="#0a0c24"/><stop offset="0.42" stop-color="#171040"/>
<stop offset="0.75" stop-color="#281b52"/><stop offset="1" stop-color="#3a2a6a"/>
</linearGradient>
<radialGradient id="mw" cx="0.5" cy="0.5" r="0.5"><stop offset="0" stop-color="#c3cbff" stop-opacity="0.17"/><stop offset="0.55" stop-color="#b9c0ff" stop-opacity="0.08"/><stop offset="1" stop-color="#b9c0ff" stop-opacity="0"/></radialGradient>
<radialGradient id="core" cx="0.5" cy="0.5" r="0.5"><stop offset="0" stop-color="#ffe9d9" stop-opacity="0.22"/><stop offset="0.4" stop-color="#e8d5ff" stop-opacity="0.12"/><stop offset="1" stop-color="#e8d5ff" stop-opacity="0"/></radialGradient>
<radialGradient id="neb1" cx="0.5" cy="0.5" r="0.5"><stop offset="0" stop-color="#7d5be0" stop-opacity="0.34"/><stop offset="1" stop-color="#7d5be0" stop-opacity="0"/></radialGradient>
<radialGradient id="neb2" cx="0.5" cy="0.5" r="0.5"><stop offset="0" stop-color="#c15aa6" stop-opacity="0.3"/><stop offset="1" stop-color="#c15aa6" stop-opacity="0"/></radialGradient>
<radialGradient id="halo" cx="0.5" cy="0.5" r="0.5"><stop offset="0" stop-color="#ffffff" stop-opacity="0.9"/><stop offset="1" stop-color="#ffffff" stop-opacity="0"/></radialGradient>
<radialGradient id="vig" cx="0.5" cy="0.5" r="0.5"><stop offset="0" stop-color="#070818" stop-opacity="0.42"/><stop offset="0.6" stop-color="#070818" stop-opacity="0.25"/><stop offset="1" stop-color="#070818" stop-opacity="0"/></radialGradient>
<filter id="b" x="-40%" y="-40%" width="180%" height="180%"><feGaussianBlur stdDeviation="28"/></filter>
</defs>

<g filter="url(#b)">
<ellipse cx="215" cy="175" rx="300" ry="130" fill="url(#mw)" opacity="0.68" transform="rotate(-81.2 215 175)"/><ellipse cx="177" cy="418" rx="260" ry="95" fill="url(#mw)" opacity="0.40" transform="rotate(-81.2 177 418)"/><ellipse cx="130" cy="720" rx="250" ry="90" fill="url(#mw)" opacity="0.24" transform="rotate(-81.2 130 720)"/><ellipse cx="87" cy="998" rx="250" ry="90" fill="url(#mw)" opacity="0.36" transform="rotate(-81.2 87 998)"/><ellipse cx="47" cy="1254" rx="260" ry="110" fill="url(#mw)" opacity="0.48" transform="rotate(-81.2 47 1254)"/><ellipse cx="220" cy="140" rx="230" ry="150" fill="url(#core)" opacity="0.60"/><ellipse cx="191" cy="352" rx="230" ry="26" fill="#0a0a20" opacity="0.20" transform="rotate(-81.2 191 352)"/>

</g>
<g><circle cx="34.5" cy="1176.2" r="0.68" fill="#ffffff" opacity="0.37"/><circle cx="194.3" cy="190.5" r="0.37" fill="#ffffff" opacity="0.32"/><circle cx="195.7" cy="681.0" r="0.87" fill="#e3d5ff" opacity="0.40"/><circle cx="223.7" cy="534.7" r="0.66" fill="#ffffff" opacity="0.35"/><circle cx="171.7" cy="552.8" r="0.51" fill="#ffffff" opacity="0.21"/><circle cx="130.6" cy="1220.3" r="0.86" fill="#e3d5ff" opacity="0.21"/><circle cx="166.4" cy="259.4" r="0.89" fill="#e3d5ff" opacity="0.20"/><circle cx="126.8" cy="1070.0" r="0.65" fill="#ffffff" opacity="0.33"/><circle cx="59.9" cy="558.7" r="0.87" fill="#ffffff" opacity="0.19"/><circle cx="16.4" cy="886.2" r="0.64" fill="#ffffff" opacity="0.37"/><circle cx="115.7" cy="1151.3" r="0.60" fill="#ffffff" opacity="0.22"/><circle cx="46.7" cy="343.0" r="0.41" fill="#ffffff" opacity="0.38"/><circle cx="237.1" cy="1263.5" r="0.84" fill="#ffffff" opacity="0.36"/><circle cx="184.4" cy="1249.3" r="0.44" fill="#e3d5ff" opacity="0.42"/><circle cx="206.3" cy="918.5" r="0.80" fill="#ffffff" opacity="0.35"/><circle cx="233.3" cy="1212.0" r="0.60" fill="#ffffff" opacity="0.31"/><circle cx="170.2" cy="427.4" r="0.76" fill="#ffffff" opacity="0.27"/><circle cx="216.2" cy="259.5" r="0.58" fill="#cfe0ff" opacity="0.35"/><circle cx="159.2" cy="507.5" r="0.78" fill="#ffffff" opacity="0.22"/><circle cx="96.6" cy="329.0" r="0.64" fill="#cfe0ff" opacity="0.25"/><circle cx="124.8" cy="201.8" r="0.87" fill="#ffffff" opacity="0.34"/><circle cx="99.3" cy="679.0" r="0.50" fill="#ffffff" opacity="0.43"/><circle cx="54.5" cy="836.4" r="0.52" fill="#ffffff" opacity="0.41"/><circle cx="31.3" cy="627.4" r="0.74" fill="#ffffff" opacity="0.42"/><circle cx="42.5" cy="565.4" r="0.87" fill="#ffffff" opacity="0.32"/><circle cx="146.4" cy="785.7" r="0.72" fill="#ffffff" opacity="0.27"/><circle cx="100.9" cy="1036.2" r="0.90" fill="#ffffff" opacity="0.41"/><circle cx="254.6" cy="515.8" r="0.48" fill="#cfe0ff" opacity="0.21"/><circle cx="183.8" cy="36.7" r="0.57" fill="#ffffff" opacity="0.23"/><circle cx="76.4" cy="142.8" r="0.55" fill="#e3d5ff" opacity="0.16"/><circle cx="179.3" cy="680.3" r="0.68" fill="#ffffff" opacity="0.38"/><circle cx="219.1" cy="1132.5" r="0.61" fill="#e3d5ff" opacity="0.23"/><circle cx="202.9" cy="115.5" r="0.74" fill="#ffffff" opacity="0.17"/><circle cx="175.9" cy="203.7" r="0.79" fill="#ffffff" opacity="0.19"/><circle cx="182.4" cy="552.6" r="0.53" fill="#ffffff" opacity="0.20"/><circle cx="229.4" cy="366.7" r="0.61" fill="#cfe0ff" opacity="0.33"/><circle cx="253.0" cy="809.2" r="0.75" fill="#ffffff" opacity="0.34"/><circle cx="111.9" cy="237.1" r="0.58" fill="#cfe0ff" opacity="0.25"/><circle cx="240.4" cy="1055.3" r="0.49" fill="#ffffff" opacity="0.32"/><circle cx="6.5" cy="809.0" r="0.47" fill="#ffffff" opacity="0.43"/><circle cx="24.8" cy="881.7" r="0.65" fill="#ffffff" opacity="0.21"/><circle cx="184.3" cy="675.0" r="0.67" fill="#e3d5ff" opacity="0.39"/><circle cx="58.4" cy="1031.2" r="0.49" fill="#ffffff" opacity="0.37"/><circle cx="214.5" cy="72.3" r="0.53" fill="#ffe3c4" opacity="0.34"/><circle cx="246.2" cy="686.2" r="0.74" fill="#ffffff" opacity="0.23"/><circle cx="220.4" cy="599.0" r="0.88" fill="#e3d5ff" opacity="0.27"/><circle cx="115.4" cy="1273.1" r="0.67" fill="#ffffff" opacity="0.21"/><circle cx="115.7" cy="806.2" r="0.52" fill="#ffffff" opacity="0.30"/><circle cx="216.7" cy="49.1" r="0.84" fill="#ffffff" opacity="0.21"/><circle cx="24.0" cy="53.8" r="0.70" fill="#ffffff" opacity="0.44"/><circle cx="170.3" cy="126.1" r="0.40" fill="#ffffff" opacity="0.42"/><circle cx="113.7" cy="639.8" r="0.37" fill="#ffffff" opacity="0.43"/><circle cx="243.9" cy="1221.9" r="0.49" fill="#ffffff" opacity="0.19"/><circle cx="52.2" cy="179.4" r="0.83" fill="#e3d5ff" opacity="0.30"/><circle cx="18.5" cy="951.3" r="0.44" fill="#ffffff" opacity="0.31"/><circle cx="87.8" cy="1337.6" r="0.57" fill="#ffe3c4" opacity="0.18"/><circle cx="148.1" cy="1088.7" r="0.75" fill="#ffffff" opacity="0.26"/><circle cx="241.1" cy="1352.0" r="0.87" fill="#ffe3c4" opacity="0.37"/><circle cx="186.4" cy="929.9" r="0.51" fill="#ffffff" opacity="0.29"/><circle cx="224.0" cy="1166.3" r="0.44" fill="#ffffff" opacity="0.29"/><circle cx="254.3" cy="51.1" r="0.76" fill="#ffffff" opacity="0.32"/><circle cx="127.2" cy="1272.8" r="1.19" fill="#ffe3c4" opacity="0.35"/><circle cx="119.0" cy="51.5" r="1.17" fill="#ffffff" opacity="0.30"/><circle cx="14.7" cy="140.1" r="1.17" fill="#e3d5ff" opacity="0.46"/><circle cx="121.1" cy="370.6" r="1.14" fill="#cfe0ff" opacity="0.46"/><circle cx="146.0" cy="457.7" r="0.75" fill="#cfe0ff" opacity="0.51"/><circle cx="196.4" cy="699.8" r="1.00" fill="#ffffff" opacity="0.46"/><circle cx="125.9" cy="830.5" r="1.20" fill="#cfe0ff" opacity="0.55"/><circle cx="93.7" cy="356.2" r="1.24" fill="#ffffff" opacity="0.41"/><circle cx="247.0" cy="556.6" r="0.84" fill="#ffffff" opacity="0.37"/><circle cx="231.0" cy="805.6" r="1.15" fill="#ffffff" opacity="0.32"/><circle cx="130.8" cy="908.5" r="1.09" fill="#ffffff" opacity="0.35"/><circle cx="206.2" cy="42.3" r="1.02" fill="#ffffff" opacity="0.45"/><circle cx="175.4" cy="912.7" r="0.82" fill="#ffffff" opacity="0.56"/><circle cx="54.2" cy="743.7" r="1.01" fill="#ffffff" opacity="0.47"/><circle cx="86.0" cy="1068.9" r="0.83" fill="#cfe0ff" opacity="0.58"/><circle cx="159.9" cy="615.3" r="0.77" fill="#ffffff" opacity="0.57"/><circle cx="167.3" cy="960.5" r="1.10" fill="#ffffff" opacity="0.49"/><circle cx="162.3" cy="1218.8" r="1.22" fill="#cfe0ff" opacity="0.53"/><circle cx="164.3" cy="887.5" r="1.22" fill="#ffffff" opacity="0.57"/><circle cx="83.7" cy="746.5" r="1.20" fill="#e3d5ff" opacity="0.36"/><circle cx="99.3" cy="867.1" r="1.16" fill="#ffffff" opacity="0.42"/><circle cx="2.1" cy="1295.0" r="0.84" fill="#ffffff" opacity="0.56"/><circle cx="195.5" cy="481.2" r="1.18" fill="#ffffff" opacity="0.29"/><circle cx="148.4" cy="1156.2" r="0.96" fill="#ffffff" opacity="0.48"/><circle cx="13.8" cy="650.4" r="0.94" fill="#ffffff" opacity="0.58"/><circle cx="166.7" cy="407.1" r="1.14" fill="#cfe0ff" opacity="0.41"/><circle cx="208.5" cy="1303.4" r="0.90" fill="#e3d5ff" opacity="0.38"/><circle cx="166.8" cy="767.0" r="0.75" fill="#e3d5ff" opacity="0.37"/><circle cx="35.4" cy="422.0" r="1.23" fill="#ffffff" opacity="0.45"/><circle cx="13.6" cy="398.1" r="0.74" fill="#cfe0ff" opacity="0.56"/></g>
<g><circle cx="207.7" cy="286.4" r="0.93" fill="#ffffff" opacity="0.77"/><circle cx="74.5" cy="1136.2" r="1.72" fill="#e3d5ff" opacity="0.42"/><circle cx="47.8" cy="966.1" r="0.74" fill="#ffffff" opacity="0.43"/><circle cx="155.6" cy="459.5" r="0.86" fill="#ffffff" opacity="0.48"/><circle cx="100.6" cy="1076.8" r="1.26" fill="#ffffff" opacity="0.77"/><circle cx="144.1" cy="713.7" r="1.74" fill="#e3d5ff" opacity="0.77"/><circle cx="158.7" cy="1082.5" r="1.50" fill="#ffffff" opacity="0.55"/><circle cx="184.4" cy="590.2" r="1.49" fill="#ffffff" opacity="0.50"/><circle cx="147.2" cy="608.9" r="0.92" fill="#ffffff" opacity="0.71"/><circle cx="163.7" cy="376.3" r="1.69" fill="#ffffff" opacity="0.53"/><circle cx="47.7" cy="1157.4" r="0.99" fill="#ffffff" opacity="0.42"/><circle cx="95.7" cy="900.0" r="1.05" fill="#ffffff" opacity="0.51"/><circle cx="102.8" cy="936.0" r="1.81" fill="#e3d5ff" opacity="0.73"/><circle cx="119.6" cy="94.6" r="0.82" fill="#cfe0ff" opacity="0.58"/><circle cx="60.1" cy="468.3" r="1.05" fill="#ffffff" opacity="0.55"/><circle cx="2.0" cy="1000.0" r="0.68" fill="#ffffff" opacity="0.27"/><circle cx="232.9" cy="606.6" r="1.54" fill="#ffe3c4" opacity="0.71"/><circle cx="258.0" cy="214.3" r="0.52" fill="#e3d5ff" opacity="0.40"/><circle cx="72.3" cy="1083.5" r="1.84" fill="#ffffff" opacity="0.68"/><circle cx="119.2" cy="1079.6" r="1.26" fill="#ffffff" opacity="0.34"/><circle cx="61.9" cy="1161.9" r="1.47" fill="#ffffff" opacity="0.46"/><circle cx="70.6" cy="1105.0" r="1.70" fill="#ffffff" opacity="0.43"/><circle cx="196.9" cy="313.7" r="1.23" fill="#cfe0ff" opacity="0.74"/><circle cx="166.7" cy="973.0" r="0.94" fill="#ffffff" opacity="0.53"/><circle cx="137.4" cy="668.4" r="1.47" fill="#ffffff" opacity="0.38"/><circle cx="14.3" cy="1316.7" r="1.29" fill="#ffffff" opacity="0.52"/><circle cx="85.9" cy="607.8" r="1.66" fill="#ffffff" opacity="0.64"/><circle cx="52.3" cy="1008.6" r="1.30" fill="#ffffff" opacity="0.61"/><circle cx="216.2" cy="186.5" r="1.87" fill="#ffffff" opacity="0.74"/><circle cx="222.2" cy="164.1" r="0.97" fill="#e3d5ff" opacity="0.41"/><circle cx="194.0" cy="233.6" r="0.86" fill="#cfe0ff" opacity="0.60"/><circle cx="98.9" cy="920.2" r="1.36" fill="#cfe0ff" opacity="0.39"/><circle cx="2.0" cy="1208.2" r="0.51" fill="#e3d5ff" opacity="0.57"/><circle cx="41.1" cy="1296.3" r="1.12" fill="#e3d5ff" opacity="0.70"/><circle cx="73.9" cy="1080.4" r="1.35" fill="#e3d5ff" opacity="0.51"/><circle cx="173.3" cy="1029.7" r="1.11" fill="#ffe3c4" opacity="0.57"/><circle cx="103.8" cy="314.7" r="0.85" fill="#ffffff" opacity="0.45"/><circle cx="141.1" cy="1070.0" r="1.50" fill="#ffffff" opacity="0.47"/><circle cx="62.4" cy="1156.5" r="1.10" fill="#ffffff" opacity="0.41"/><circle cx="210.2" cy="277.5" r="1.03" fill="#ffffff" opacity="0.59"/><circle cx="142.2" cy="475.3" r="1.70" fill="#ffffff" opacity="0.50"/><circle cx="130.2" cy="716.5" r="1.58" fill="#ffffff" opacity="0.45"/><circle cx="61.9" cy="967.9" r="1.67" fill="#ffffff" opacity="0.75"/><circle cx="86.7" cy="999.0" r="1.51" fill="#ffffff" opacity="0.57"/><circle cx="179.6" cy="416.2" r="1.74" fill="#ffffff" opacity="0.78"/><circle cx="243.1" cy="614.2" r="0.82" fill="#ffffff" opacity="0.50"/><circle cx="173.6" cy="133.7" r="1.06" fill="#ffffff" opacity="0.49"/><circle cx="121.5" cy="882.0" r="1.69" fill="#ffffff" opacity="0.76"/><circle cx="19.4" cy="1259.6" r="1.21" fill="#ffffff" opacity="0.55"/><circle cx="21.5" cy="1303.2" r="1.13" fill="#ffe3c4" opacity="0.76"/><circle cx="110.3" cy="476.5" r="0.87" fill="#ffffff" opacity="0.48"/><circle cx="179.1" cy="476.9" r="1.21" fill="#ffffff" opacity="0.39"/><circle cx="50.4" cy="1238.2" r="1.73" fill="#ffffff" opacity="0.62"/><circle cx="28.7" cy="1005.2" r="1.36" fill="#ffffff" opacity="0.52"/><circle cx="191.5" cy="322.2" r="1.14" fill="#ffffff" opacity="0.46"/><circle cx="218.0" cy="98.2" r="1.55" fill="#ffffff" opacity="0.74"/><circle cx="127.8" cy="712.6" r="1.13" fill="#ffffff" opacity="0.66"/><circle cx="131.0" cy="713.6" r="1.39" fill="#ffffff" opacity="0.44"/><circle cx="248.3" cy="620.9" r="0.89" fill="#ffffff" opacity="0.40"/><circle cx="26.1" cy="774.4" r="1.12" fill="#ffffff" opacity="0.62"/><circle cx="218.0" cy="136.6" r="1.14" fill="#ffffff" opacity="0.76"/><circle cx="130.3" cy="785.3" r="0.89" fill="#ffffff" opacity="0.37"/><circle cx="204.0" cy="242.8" r="1.26" fill="#ffffff" opacity="0.49"/><circle cx="206.3" cy="147.9" r="0.90" fill="#cfe0ff" opacity="0.50"/><circle cx="107.0" cy="373.3" r="0.92" fill="#cfe0ff" opacity="0.35"/><circle cx="43.4" cy="1023.5" r="1.65" fill="#ffffff" opacity="0.40"/></g>
<ellipse cx="130" cy="728" rx="620" ry="330" fill="url(#vig)"/>
<g><circle cx="228.4" cy="613.0" r="10.7" fill="url(#halo)" opacity="0.24"/><circle cx="228.4" cy="613.0" r="1.53" fill="#ffffff" opacity="0.73"/><circle cx="130.2" cy="1285.8" r="13.4" fill="url(#halo)" opacity="0.24"/><circle cx="130.2" cy="1285.8" r="1.91" fill="#ffffff" opacity="0.75"/><circle cx="11.5" cy="878.2" r="1.88" fill="#ffffff" opacity="0.71"/><circle cx="142.8" cy="870.7" r="1.36" fill="#ffffff" opacity="0.78"/><circle cx="183.7" cy="372.5" r="1.77" fill="#ffffff" opacity="0.62"/><circle cx="148.4" cy="225.0" r="2.11" fill="#ffffff" opacity="0.73"/><circle cx="185.0" cy="400.8" r="2.01" fill="#cfe0ff" opacity="0.66"/><circle cx="60.4" cy="449.0" r="2.18" fill="#ffffff" opacity="0.68"/><circle cx="51.5" cy="214.4" r="2.16" fill="#e3d5ff" opacity="0.67"/></g>
<g opacity="0.52"><circle cx="20" cy="190" r="16" fill="url(#halo)" opacity="0.55"/><path d="M5 190H35M20 175V205" stroke="#ffffff" stroke-width="0.9" opacity="0.6"/><circle cx="20" cy="190" r="1.7" fill="#ffffff"/></g><g opacity="0.52"><circle cx="246" cy="1175" r="16" fill="url(#halo)" opacity="0.55"/><path d="M233 1175H259M246 1162V1188" stroke="#ffffff" stroke-width="0.9" opacity="0.6"/><circle cx="246" cy="1175" r="1.7" fill="#ffffff"/></g><g opacity="0.52"><circle cx="33" cy="1180" r="16" fill="url(#halo)" opacity="0.55"/><path d="M22 1180H44M33 1169V1191" stroke="#ffffff" stroke-width="0.9" opacity="0.6"/><circle cx="33" cy="1180" r="1.7" fill="#ffffff"/></g>
</svg>