<svg xmlns="http://www.w3.org/2000/svg" viewBox="0 0 1200 560" preserveAspectRatio="xMidYMid slice">
<defs>
<linearGradient id="sky" x1="0.1" y1="0" x2="0.22" y2="1">
<stop offset="0" stop-color="#0a0c24"/><stop offset="0.42" stop-color="#171040"/>
<stop offset="0.75" stop-color="#281b52"/><stop offset="1" stop-color="#3a2a6a"/>
</linearGradient>
<radialGradient id="mw" cx="0.5" cy="0.5" r="0.5"><stop offset="0" stop-color="#c3cbff" stop-opacity="0.17"/><stop offset="0.55" stop-color="#b9c0ff" stop-opacity="0.08"/><stop offset="1" stop-color="#b9c0ff" stop-opacity="0"/></radialGradient>
<radialGradient id="core" cx="0.5" cy="0.5" r="0.5"><stop offset="0" stop-color="#ffe9d9" stop-opacity="0.22"/><stop offset="0.4" stop-color="#e8d5ff" stop-opacity="0.12"/><stop offset="1" stop-color="#e8d5ff" stop-opacity="0"/></radialGradient>
<radialGradient id="neb1" cx="0.5" cy="0.5" r="0.5"><stop offset="0" stop-color="#7d5be0" stop-opacity="0.34"/><stop offset="1" stop-color="#7d5be0" stop-opacity="0"/></radialGradient>
<radialGradient id="neb2" cx="0.5" cy="0.5" r="0.5"><stop offset="0" stop-color="#c15aa6" stop-opacity="0.3"/><stop offset="1" stop-color="#c15aa6" stop-opacity="0"/></radialGradient>
<radialGradient id="halo" cx="0.5" cy="0.5" r="0.5"><stop offset="0" stop-color="#ffffff" stop-opacity="0.9"/><stop offset="1" stop-color="#ffffff" stop-opacity="0"/></radialGradient>
<radialGradient id="vig" cx="0.5" cy="0.5" r="0.5"><stop offset="0" stop-color="#070818" stop-opacity="0.42"/><stop offset="0.6" stop-color="#070818" stop-opacity="0.25"/><stop offset="1" stop-color="#070818" stop-opacity="0"/></radialGradient>
<filter id="b" x="-40%" y="-40%" width="180%" height="180%"><feGaussianBlur stdDeviation="28"/></filter>
</defs>
<rect width="1200" height="560" fill="url(#sky)"/>
<g filter="url(#b)">
<ellipse cx="1088" cy="84" rx="300" ry="130" fill="url(#mw)" opacity="0.85" transform="rotate(-23.9 1088 84)"/><ellipse cx="866" cy="183" rx="260" ry="95" fill="url(#mw)" opacity="0.5" transform="rotate(-23.9 866 183)"/><ellipse cx="590" cy="305" rx="250" ry="90" fill="url(#mw)" opacity="0.3" transform="rotate(-23.9 590 305)"/><ellipse cx="336" cy="418" rx="250" ry="90" fill="url(#mw)" opacity="0.45" transform="rotate(-23.9 336 418)"/><ellipse cx="102" cy="521" rx="260" ry="110" fill="url(#mw)" opacity="0.6" transform="rotate(-23.9 102 521)"/><ellipse cx="1120" cy="70" rx="230" ry="150" fill="url(#core)" opacity="0.75"/><ellipse cx="950" cy="171" rx="230" ry="26" fill="#0a0a20" opacity="0.25" transform="rotate(-23.9 950 171)"/>
<ellipse cx="160" cy="480" rx="260" ry="190" fill="url(#neb1)"/>
<ellipse cx="1010" cy="150" rx="240" ry="170" fill="url(#neb2)"/>
<ellipse cx="340" cy="90" rx="190" ry="120" fill="url(#neb1)" opacity="0.5"/>
</g>
<g><circle cx="459.8" cy="83.3" r="0.84" fill="#e3d5ff" opacity="0.39"/><circle cx="14.6" cy="183.3" r="0.79" fill="#ffffff" opacity="0.49"/><circle cx="872.0" cy="45.7" r="0.41" fill="#ffffff" opacity="0.47"/><circle cx="84.5" cy="452.4" r="0.85" fill="#ffffff" opacity="0.48"/><circle cx="435.0" cy="546.6" r="0.86" fill="#ffe3c4" opacity="0.22"/><circle cx="782.2" cy="481.7" r="0.76" fill="#ffe3c4" opacity="0.29"/><circle cx="215.8" cy="295.5" r="0.62" fill="#ffffff" opacity="0.44"/><circle cx="595.9" cy="236.0" r="0.37" fill="#cfe0ff" opacity="0.50"/><circle cx="339.5" cy="266.5" r="0.66" fill="#ffe3c4" opacity="0.43"/><circle cx="744.4" cy="209.2" r="0.64" fill="#ffffff" opacity="0.50"/><circle cx="1173.8" cy="488.0" r="0.49" fill="#ffffff" opacity="0.52"/><circle cx="675.9" cy="392.6" r="0.44" fill="#ffffff" opacity="0.23"/><circle cx="720.8" cy="47.4" r="0.86" fill="#ffffff" opacity="0.38"/><circle cx="19.3" cy="76.0" r="0.44" fill="#ffffff" opacity="0.24"/><circle cx="1063.0" cy="260.0" r="0.43" fill="#e3d5ff" opacity="0.43"/><circle cx="1100.0" cy="107.4" r="0.63" fill="#ffffff" opacity="0.43"/><circle cx="399.8" cy="192.6" r="0.72" fill="#ffffff" opacity="0.25"/><circle cx="185.2" cy="72.1" r="0.65" fill="#ffffff" opacity="0.21"/><circle cx="21.6" cy="226.4" r="0.54" fill="#ffffff" opacity="0.33"/><circle cx="21.0" cy="552.5" r="0.70" fill="#ffffff" opacity="0.49"/><circle cx="120.2" cy="192.3" r="0.37" fill="#ffffff" opacity="0.23"/><circle cx="371.3" cy="351.8" r="0.76" fill="#ffffff" opacity="0.40"/><circle cx="789.5" cy="7.8" r="0.80" fill="#e3d5ff" opacity="0.25"/><circle cx="415.7" cy="77.1" r="0.77" fill="#ffffff" opacity="0.40"/><circle cx="730.8" cy="510.7" r="0.75" fill="#ffffff" opacity="0.52"/><circle cx="608.9" cy="111.6" r="0.71" fill="#ffffff" opacity="0.44"/><circle cx="1104.3" cy="400.3" r="0.83" fill="#ffffff" opacity="0.34"/><circle cx="924.2" cy="148.0" r="0.54" fill="#ffffff" opacity="0.49"/><circle cx="1188.4" cy="324.8" r="0.53" fill="#ffffff" opacity="0.53"/><circle cx="171.0" cy="510.8" r="0.50" fill="#e3d5ff" opacity="0.31"/><circle cx="553.1" cy="530.9" r="0.83" fill="#ffffff" opacity="0.35"/><circle cx="854.9" cy="428.7" r="0.90" fill="#e3d5ff" opacity="0.25"/><circle cx="26.6" cy="468.9" r="0.52" fill="#ffffff" opacity="0.31"/><circle cx="281.8" cy="53.4" r="0.73" fill="#ffffff" opacity="0.25"/><circle cx="1074.4" cy="295.9" r="0.69" fill="#cfe0ff" opacity="0.33"/><circle cx="801.7" cy="329.3" r="0.52" fill="#ffffff" opacity="0.39"/><circle cx="903.8" cy="36.6" r="0.35" fill="#ffffff" opacity="0.27"/><circle cx="676.1" cy="445.7" r="0.73" fill="#ffffff" opacity="0.34"/><circle cx="31.5" cy="101.3" r="0.39" fill="#ffffff" opacity="0.28"/><circle cx="878.6" cy="292.7" r="0.36" fill="#ffffff" opacity="0.33"/><circle cx="1034.1" cy="214.1" r="0.52" fill="#ffffff" opacity="0.38"/><circle cx="965.3" cy="86.6" r="0.81" fill="#ffe3c4" opacity="0.49"/><circle cx="1156.4" cy="448.5" r="0.79" fill="#ffffff" opacity="0.42"/><circle cx="876.6" cy="99.9" r="0.46" fill="#ffffff" opacity="0.22"/><circle cx="356.9" cy="519.6" r="0.66" fill="#ffffff" opacity="0.46"/><circle cx="411.1" cy="356.5" r="0.80" fill="#ffffff" opacity="0.31"/><circle cx="402.9" cy="112.4" r="0.67" fill="#ffffff" opacity="0.35"/><circle cx="1079.4" cy="40.4" r="0.72" fill="#ffe3c4" opacity="0.43"/><circle cx="129.9" cy="365.9" r="0.46" fill="#ffffff" opacity="0.45"/><circle cx="719.0" cy="23.7" r="0.83" fill="#cfe0ff" opacity="0.30"/><circle cx="831.8" cy="266.2" r="0.86" fill="#ffffff" opacity="0.49"/><circle cx="569.4" cy="216.3" r="0.69" fill="#ffffff" opacity="0.34"/><circle cx="531.0" cy="363.1" r="0.59" fill="#ffffff" opacity="0.37"/><circle cx="278.7" cy="159.1" r="0.72" fill="#ffffff" opacity="0.44"/><circle cx="594.3" cy="463.2" r="0.87" fill="#cfe0ff" opacity="0.31"/><circle cx="914.7" cy="254.3" r="0.70" fill="#e3d5ff" opacity="0.30"/><circle cx="794.8" cy="319.2" r="0.63" fill="#ffffff" opacity="0.55"/><circle cx="357.2" cy="186.6" r="0.50" fill="#ffffff" opacity="0.37"/><circle cx="870.1" cy="380.0" r="0.55" fill="#ffffff" opacity="0.44"/><circle cx="150.8" cy="271.4" r="0.88" fill="#ffffff" opacity="0.29"/><circle cx="1122.4" cy="294.4" r="0.77" fill="#cfe0ff" opacity="0.53"/><circle cx="829.3" cy="75.4" r="0.77" fill="#ffe3c4" opacity="0.51"/><circle cx="780.0" cy="514.1" r="0.84" fill="#ffffff" opacity="0.53"/><circle cx="955.3" cy="426.1" r="0.69" fill="#ffffff" opacity="0.51"/><circle cx="1197.5" cy="518.2" r="0.62" fill="#cfe0ff" opacity="0.24"/><circle cx="559.7" cy="238.7" r="0.53" fill="#ffffff" opacity="0.35"/><circle cx="749.3" cy="448.7" r="0.62" fill="#e3d5ff" opacity="0.46"/><circle cx="45.3" cy="543.5" r="0.57" fill="#ffffff" opacity="0.27"/><circle cx="1110.4" cy="479.7" r="0.88" fill="#ffffff" opacity="0.38"/><circle cx="316.5" cy="411.0" r="0.61" fill="#ffffff" opacity="0.24"/><circle cx="1025.9" cy="463.8" r="0.66" fill="#ffffff" opacity="0.21"/><circle cx="432.9" cy="305.1" r="0.80" fill="#ffffff" opacity="0.41"/><circle cx="467.0" cy="406.5" r="0.47" fill="#cfe0ff" opacity="0.49"/><circle cx="102.5" cy="354.8" r="0.89" fill="#e3d5ff" opacity="0.54"/><circle cx="1165.4" cy="216.1" r="0.45" fill="#ffffff" opacity="0.44"/><circle cx="772.3" cy="273.4" r="0.42" fill="#cfe0ff" opacity="0.43"/><circle cx="949.1" cy="513.5" r="0.89" fill="#ffffff" opacity="0.29"/><circle cx="1020.8" cy="118.2" r="0.68" fill="#ffffff" opacity="0.31"/><circle cx="1008.3" cy="371.4" r="0.79" fill="#cfe0ff" opacity="0.49"/><circle cx="295.4" cy="370.8" r="0.87" fill="#ffffff" opacity="0.45"/><circle cx="17.5" cy="549.3" r="0.68" fill="#ffffff" opacity="0.42"/><circle cx="994.6" cy="153.4" r="0.79" fill="#ffffff" opacity="0.26"/><circle cx="457.8" cy="144.4" r="0.76" fill="#ffffff" opacity="0.25"/><circle cx="279.7" cy="165.4" r="0.75" fill="#ffffff" opacity="0.44"/><circle cx="1137.4" cy="74.6" r="0.69" fill="#ffffff" opacity="0.30"/><circle cx="868.8" cy="344.1" r="0.55" fill="#cfe0ff" opacity="0.21"/><circle cx="404.5" cy="105.2" r="0.49" fill="#ffffff" opacity="0.52"/><circle cx="215.3" cy="70.9" r="0.81" fill="#cfe0ff" opacity="0.24"/><circle cx="396.3" cy="288.1" r="0.51" fill="#ffffff" opacity="0.44"/><circle cx="827.6" cy="350.9" r="0.56" fill="#ffe3c4" opacity="0.39"/><circle cx="837.9" cy="488.2" r="0.70" fill="#ffffff" opacity="0.27"/><circle cx="760.6" cy="355.4" r="0.76" fill="#e3d5ff" opacity="0.34"/><circle cx="933.5" cy="296.4" r="0.58" fill="#ffffff" opacity="0.28"/><circle cx="53.9" cy="150.0" r="0.83" fill="#ffffff" opacity="0.39"/><circle cx="586.3" cy="113.6" r="0.51" fill="#ffe3c4" opacity="0.26"/><circle cx="43.7" cy="278.1" r="0.83" fill="#ffffff" opacity="0.49"/><circle cx="612.3" cy="266.7" r="0.65" fill="#e3d5ff" opacity="0.32"/><circle cx="756.5" cy="277.0" r="0.77" fill="#ffffff" opacity="0.50"/><circle cx="502.2" cy="321.4" r="0.88" fill="#ffffff" opacity="0.41"/><circle cx="382.8" cy="478.3" r="0.70" fill="#cfe0ff" opacity="0.48"/><circle cx="216.3" cy="165.5" r="0.72" fill="#ffffff" opacity="0.32"/><circle cx="171.0" cy="527.0" r="0.55" fill="#ffffff" opacity="0.29"/><circle cx="655.7" cy="356.5" r="0.64" fill="#ffffff" opacity="0.26"/><circle cx="280.6" cy="519.4" r="0.45" fill="#ffffff" opacity="0.52"/><circle cx="24.7" cy="154.8" r="0.46" fill="#ffffff" opacity="0.25"/><circle cx="927.4" cy="354.6" r="0.66" fill="#ffffff" opacity="0.27"/><circle cx="716.7" cy="545.9" r="0.59" fill="#cfe0ff" opacity="0.46"/><circle cx="370.6" cy="274.4" r="0.35" fill="#ffffff" opacity="0.24"/><circle cx="1048.5" cy="102.7" r="0.52" fill="#ffffff" opacity="0.45"/><circle cx="815.2" cy="362.1" r="0.37" fill="#e3d5ff" opacity="0.26"/><circle cx="207.6" cy="507.2" r="0.99" fill="#ffffff" opacity="0.38"/><circle cx="845.1" cy="476.1" r="1.19" fill="#ffffff" opacity="0.74"/><circle cx="89.8" cy="379.2" r="1.04" fill="#ffffff" opacity="0.37"/><circle cx="404.2" cy="143.8" r="0.80" fill="#ffffff" opacity="0.40"/><circle cx="590.3" cy="209.9" r="1.23" fill="#ffffff" opacity="0.60"/><circle cx="1188.2" cy="22.8" r="1.21" fill="#e3d5ff" opacity="0.46"/><circle cx="9.6" cy="520.6" r="1.14" fill="#ffffff" opacity="0.52"/><circle cx="473.0" cy="432.1" r="1.17" fill="#ffffff" opacity="0.48"/><circle cx="144.8" cy="462.1" r="1.23" fill="#ffffff" opacity="0.59"/><circle cx="452.8" cy="506.6" r="1.09" fill="#ffffff" opacity="0.61"/><circle cx="877.1" cy="149.1" r="1.12" fill="#ffffff" opacity="0.48"/><circle cx="1122.1" cy="247.3" r="0.71" fill="#ffffff" opacity="0.41"/><circle cx="625.7" cy="407.8" r="0.74" fill="#ffffff" opacity="0.49"/><circle cx="362.7" cy="196.5" r="1.04" fill="#ffffff" opacity="0.71"/><circle cx="545.7" cy="506.2" r="0.96" fill="#ffffff" opacity="0.37"/><circle cx="378.2" cy="452.5" r="0.88" fill="#cfe0ff" opacity="0.66"/><circle cx="3.3" cy="18.1" r="0.97" fill="#cfe0ff" opacity="0.58"/><circle cx="272.9" cy="292.9" r="0.94" fill="#ffffff" opacity="0.45"/><circle cx="359.7" cy="461.8" r="1.19" fill="#ffffff" opacity="0.50"/><circle cx="55.3" cy="24.1" r="1.24" fill="#ffffff" opacity="0.58"/><circle cx="239.6" cy="178.5" r="1.14" fill="#ffffff" opacity="0.68"/><circle cx="583.5" cy="73.2" r="1.05" fill="#ffe3c4" opacity="0.39"/><circle cx="883.0" cy="312.9" r="1.17" fill="#ffffff" opacity="0.35"/><circle cx="549.7" cy="492.6" r="0.74" fill="#ffffff" opacity="0.47"/><circle cx="1181.3" cy="354.0" r="1.16" fill="#ffffff" opacity="0.64"/><circle cx="55.0" cy="459.1" r="1.19" fill="#ffffff" opacity="0.51"/><circle cx="255.2" cy="367.6" r="0.95" fill="#ffffff" opacity="0.61"/><circle cx="646.6" cy="476.8" r="0.89" fill="#ffffff" opacity="0.44"/><circle cx="1181.3" cy="552.7" r="1.14" fill="#ffffff" opacity="0.67"/><circle cx="913.7" cy="58.8" r="1.25" fill="#ffffff" opacity="0.71"/><circle cx="1049.5" cy="425.4" r="1.12" fill="#ffffff" opacity="0.73"/><circle cx="161.6" cy="88.3" r="1.11" fill="#ffffff" opacity="0.52"/><circle cx="616.9" cy="376.6" r="0.88" fill="#ffffff" opacity="0.39"/><circle cx="669.2" cy="12.2" r="1.16" fill="#ffffff" opacity="0.42"/><circle cx="316.4" cy="14.9" r="0.75" fill="#ffffff" opacity="0.72"/><circle cx="148.2" cy="415.1" r="0.76" fill="#ffffff" opacity="0.35"/><circle cx="139.8" cy="241.8" r="1.21" fill="#ffffff" opacity="0.56"/><circle cx="934.3" cy="321.7" r="1.10" fill="#ffffff" opacity="0.48"/><circle cx="744.9" cy="91.3" r="1.03" fill="#ffffff" opacity="0.45"/><circle cx="735.4" cy="48.9" r="1.22" fill="#ffffff" opacity="0.41"/><circle cx="1151.9" cy="500.6" r="0.79" fill="#ffffff" opacity="0.69"/><circle cx="666.2" cy="382.8" r="0.91" fill="#ffffff" opacity="0.54"/><circle cx="384.7" cy="235.8" r="1.09" fill="#ffffff" opacity="0.45"/><circle cx="932.8" cy="441.8" r="0.98" fill="#ffffff" opacity="0.53"/><circle cx="910.1" cy="84.4" r="0.77" fill="#ffffff" opacity="0.37"/><circle cx="195.3" cy="482.6" r="1.10" fill="#ffffff" opacity="0.64"/><circle cx="920.9" cy="136.9" r="1.10" fill="#cfe0ff" opacity="0.66"/><circle cx="612.1" cy="158.3" r="1.25" fill="#ffffff" opacity="0.40"/><circle cx="901.6" cy="291.1" r="0.93" fill="#ffffff" opacity="0.49"/><circle cx="1176.9" cy="287.3" r="0.84" fill="#e3d5ff" opacity="0.71"/><circle cx="222.3" cy="177.3" r="1.23" fill="#ffffff" opacity="0.67"/><circle cx="569.1" cy="263.2" r="1.16" fill="#ffe3c4" opacity="0.36"/><circle cx="325.6" cy="121.6" r="1.10" fill="#ffffff" opacity="0.58"/><circle cx="444.8" cy="339.5" r="0.80" fill="#ffffff" opacity="0.49"/><circle cx="1156.0" cy="121.6" r="0.97" fill="#ffe3c4" opacity="0.62"/></g>
<g><circle cx="451.1" cy="391.8" r="1.00" fill="#ffffff" opacity="0.41"/><circle cx="77.5" cy="532.0" r="0.97" fill="#cfe0ff" opacity="0.68"/><circle cx="881.8" cy="301.2" r="1.00" fill="#ffffff" opacity="0.43"/><circle cx="41.0" cy="556.7" r="1.79" fill="#ffffff" opacity="0.89"/><circle cx="540.0" cy="320.4" r="1.00" fill="#ffffff" opacity="0.28"/><circle cx="436.2" cy="400.2" r="1.00" fill="#ffffff" opacity="0.63"/><circle cx="418.7" cy="386.3" r="1.00" fill="#ffe3c4" opacity="0.47"/><circle cx="480.4" cy="353.6" r="1.00" fill="#ffffff" opacity="0.46"/><circle cx="492.6" cy="344.8" r="1.00" fill="#ffffff" opacity="0.50"/><circle cx="905.6" cy="138.6" r="1.00" fill="#ffffff" opacity="0.36"/><circle cx="114.0" cy="429.2" r="1.28" fill="#ffffff" opacity="0.56"/><circle cx="477.0" cy="361.2" r="1.00" fill="#cfe0ff" opacity="0.51"/><circle cx="900.0" cy="167.8" r="0.91" fill="#cfe0ff" opacity="0.64"/><circle cx="401.0" cy="410.7" r="1.00" fill="#ffffff" opacity="0.43"/><circle cx="515.0" cy="366.1" r="1.00" fill="#ffffff" opacity="0.34"/><circle cx="197.8" cy="461.0" r="1.81" fill="#ffffff" opacity="0.79"/><circle cx="961.5" cy="96.4" r="1.22" fill="#ffe3c4" opacity="0.63"/><circle cx="633.1" cy="413.6" r="1.00" fill="#ffe3c4" opacity="0.41"/><circle cx="976.5" cy="145.5" r="1.00" fill="#ffffff" opacity="0.76"/><circle cx="399.2" cy="389.6" r="1.00" fill="#ffffff" opacity="0.38"/><circle cx="983.6" cy="103.0" r="1.05" fill="#ffffff" opacity="0.79"/><circle cx="759.6" cy="146.5" r="1.00" fill="#ffffff" opacity="0.35"/><circle cx="227.6" cy="384.4" r="0.94" fill="#ffffff" opacity="0.39"/><circle cx="976.0" cy="130.6" r="1.00" fill="#cfe0ff" opacity="0.46"/><circle cx="596.8" cy="310.7" r="0.98" fill="#ffffff" opacity="0.27"/><circle cx="713.9" cy="239.6" r="1.00" fill="#ffffff" opacity="0.39"/><circle cx="93.8" cy="528.4" r="1.86" fill="#ffffff" opacity="0.51"/><circle cx="591.4" cy="310.4" r="1.00" fill="#ffffff" opacity="0.57"/><circle cx="292.9" cy="414.4" r="0.97" fill="#ffffff" opacity="0.38"/><circle cx="169.9" cy="414.4" r="0.96" fill="#ffffff" opacity="0.55"/><circle cx="1168.1" cy="65.1" r="0.97" fill="#cfe0ff" opacity="0.94"/><circle cx="1140.2" cy="60.8" r="1.30" fill="#ffe3c4" opacity="0.92"/><circle cx="55.5" cy="536.1" r="1.28" fill="#ffffff" opacity="0.66"/><circle cx="1158.0" cy="53.0" r="1.65" fill="#ffffff" opacity="0.46"/><circle cx="1114.8" cy="108.0" r="0.78" fill="#ffffff" opacity="0.46"/><circle cx="1012.2" cy="209.0" r="0.94" fill="#e3d5ff" opacity="0.88"/><circle cx="306.3" cy="470.0" r="1.44" fill="#ffffff" opacity="0.73"/><circle cx="836.2" cy="118.5" r="0.84" fill="#ffffff" opacity="0.68"/><circle cx="1121.0" cy="69.5" r="1.57" fill="#ffffff" opacity="1.00"/><circle cx="256.6" cy="451.3" r="1.53" fill="#ffffff" opacity="0.56"/><circle cx="191.1" cy="503.8" r="1.40" fill="#cfe0ff" opacity="0.52"/><circle cx="358.4" cy="479.2" r="0.75" fill="#ffffff" opacity="0.74"/><circle cx="89.2" cy="558.0" r="0.97" fill="#ffffff" opacity="0.63"/><circle cx="703.4" cy="260.6" r="1.00" fill="#cfe0ff" opacity="0.51"/><circle cx="764.8" cy="221.5" r="1.00" fill="#cfe0ff" opacity="0.52"/><circle cx="1026.9" cy="66.0" r="1.47" fill="#ffffff" opacity="0.76"/><circle cx="908.8" cy="163.5" r="1.00" fill="#ffe3c4" opacity="0.53"/><circle cx="1157.8" cy="71.6" r="1.76" fill="#ffffff" opacity="0.91"/><circle cx="551.0" cy="316.6" r="1.00" fill="#ffffff" opacity="0.53"/><circle cx="439.4" cy="371.6" r="1.00" fill="#ffffff" opacity="0.65"/><circle cx="980.2" cy="66.5" r="1.64" fill="#ffffff" opacity="0.45"/><circle cx="688.1" cy="188.6" r="0.93" fill="#ffffff" opacity="0.41"/><circle cx="458.7" cy="396.0" r="1.00" fill="#ffffff" opacity="0.56"/><circle cx="706.1" cy="223.1" r="0.86" fill="#ffffff" opacity="0.52"/><circle cx="1101.0" cy="108.0" r="1.79" fill="#ffffff" opacity="0.59"/><circle cx="75.4" cy="524.4" r="1.79" fill="#ffffff" opacity="0.52"/><circle cx="625.5" cy="289.2" r="1.00" fill="#ffe3c4" opacity="0.36"/><circle cx="1113.1" cy="108.3" r="1.58" fill="#ffffff" opacity="0.74"/><circle cx="332.2" cy="381.6" r="1.00" fill="#ffffff" opacity="0.61"/><circle cx="384.4" cy="352.7" r="1.00" fill="#ffffff" opacity="0.52"/><circle cx="791.4" cy="207.1" r="1.00" fill="#ffe3c4" opacity="0.40"/><circle cx="953.1" cy="121.5" r="1.00" fill="#cfe0ff" opacity="0.48"/><circle cx="797.2" cy="213.1" r="1.00" fill="#e3d5ff" opacity="0.32"/><circle cx="674.2" cy="229.9" r="1.00" fill="#ffffff" opacity="0.54"/><circle cx="165.3" cy="492.8" r="0.97" fill="#ffffff" opacity="0.57"/><circle cx="1123.5" cy="48.4" r="1.72" fill="#cfe0ff" opacity="0.54"/><circle cx="580.5" cy="176.6" r="0.97" fill="#ffffff" opacity="0.38"/><circle cx="439.7" cy="371.7" r="0.95" fill="#cfe0ff" opacity="0.64"/><circle cx="959.6" cy="229.5" r="1.00" fill="#ffffff" opacity="0.54"/><circle cx="608.0" cy="301.9" r="1.00" fill="#e3d5ff" opacity="0.43"/><circle cx="223.2" cy="468.1" r="1.17" fill="#ffffff" opacity="0.86"/><circle cx="22.2" cy="556.8" r="1.50" fill="#ffffff" opacity="0.84"/><circle cx="708.4" cy="293.4" r="1.00" fill="#ffffff" opacity="0.54"/><circle cx="510.6" cy="351.6" r="1.00" fill="#cfe0ff" opacity="0.49"/><circle cx="410.3" cy="428.8" r="1.00" fill="#cfe0ff" opacity="0.58"/><circle cx="567.7" cy="315.2" r="1.00" fill="#ffffff" opacity="0.39"/><circle cx="550.5" cy="322.5" r="1.00" fill="#ffffff" opacity="0.40"/><circle cx="934.1" cy="123.0" r="1.00" fill="#cfe0ff" opacity="0.61"/><circle cx="493.8" cy="344.2" r="1.00" fill="#ffe3c4" opacity="0.39"/><circle cx="592.2" cy="314.1" r="0.87" fill="#ffffff" opacity="0.53"/><circle cx="613.6" cy="186.5" r="0.92" fill="#ffffff" opacity="0.37"/><circle cx="862.6" cy="169.1" r="1.00" fill="#cfe0ff" opacity="0.67"/><circle cx="383.3" cy="396.7" r="1.00" fill="#ffffff" opacity="0.67"/><circle cx="853.2" cy="189.2" r="1.00" fill="#ffffff" opacity="0.56"/><circle cx="1093.2" cy="81.8" r="1.65" fill="#ffffff" opacity="0.98"/><circle cx="788.1" cy="100.9" r="1.12" fill="#ffffff" opacity="0.77"/><circle cx="97.5" cy="520.9" r="1.11" fill="#ffffff" opacity="0.71"/><circle cx="313.3" cy="439.6" r="1.00" fill="#ffffff" opacity="0.66"/><circle cx="1057.8" cy="78.2" r="1.07" fill="#ffffff" opacity="0.89"/><circle cx="146.4" cy="502.3" r="1.22" fill="#ffffff" opacity="0.88"/><circle cx="632.9" cy="254.9" r="1.00" fill="#ffffff" opacity="0.25"/><circle cx="833.2" cy="155.9" r="1.00" fill="#ffe3c4" opacity="0.35"/><circle cx="1071.0" cy="130.7" r="0.96" fill="#ffffff" opacity="0.90"/><circle cx="1031.8" cy="55.8" r="1.60" fill="#ffffff" opacity="0.51"/><circle cx="1150.3" cy="57.7" r="1.70" fill="#ffffff" opacity="0.52"/><circle cx="992.2" cy="122.4" r="1.00" fill="#ffe3c4" opacity="0.67"/><circle cx="292.7" cy="438.0" r="0.98" fill="#cfe0ff" opacity="0.51"/><circle cx="973.2" cy="110.3" r="0.99" fill="#cfe0ff" opacity="0.61"/><circle cx="949.1" cy="269.4" r="0.78" fill="#ffffff" opacity="0.35"/><circle cx="1093.5" cy="81.7" r="1.06" fill="#ffffff" opacity="0.56"/><circle cx="6.9" cy="457.7" r="1.29" fill="#ffffff" opacity="0.85"/><circle cx="625.8" cy="278.4" r="1.00" fill="#e3d5ff" opacity="0.55"/><circle cx="1131.5" cy="18.6" r="1.22" fill="#ffffff" opacity="0.67"/><circle cx="1112.7" cy="142.2" r="1.57" fill="#ffffff" opacity="0.75"/><circle cx="698.8" cy="257.0" r="1.00" fill="#ffffff" opacity="0.51"/><circle cx="726.6" cy="244.9" r="0.96" fill="#ffffff" opacity="0.44"/><circle cx="969.6" cy="136.4" r="0.91" fill="#ffffff" opacity="0.48"/><circle cx="433.5" cy="374.1" r="1.00" fill="#ffffff" opacity="0.67"/><circle cx="1090.1" cy="44.3" r="1.06" fill="#ffffff" opacity="0.83"/><circle cx="741.2" cy="324.1" r="1.00" fill="#ffffff" opacity="0.41"/><circle cx="845.0" cy="193.5" r="1.00" fill="#ffffff" opacity="0.56"/><circle cx="902.8" cy="201.6" r="1.00" fill="#ffffff" opacity="0.59"/><circle cx="838.6" cy="159.6" r="0.88" fill="#ffffff" opacity="0.45"/><circle cx="913.8" cy="160.7" r="1.00" fill="#cfe0ff" opacity="0.62"/><circle cx="636.2" cy="275.9" r="1.00" fill="#ffffff" opacity="0.55"/><circle cx="457.2" cy="500.0" r="1.41" fill="#ffffff" opacity="0.70"/><circle cx="361.9" cy="406.0" r="1.00" fill="#ffffff" opacity="0.58"/><circle cx="791.2" cy="215.1" r="1.00" fill="#ffffff" opacity="0.66"/><circle cx="190.3" cy="390.3" r="1.00" fill="#ffffff" opacity="0.63"/><circle cx="1033.8" cy="2.0" r="0.99" fill="#cfe0ff" opacity="0.80"/></g>
<ellipse cx="600" cy="291.2" rx="620" ry="330" fill="url(#vig)"/>
<g><circle cx="822.5" cy="522.4" r="10.3" fill="url(#halo)" opacity="0.3"/><circle cx="822.5" cy="522.4" r="1.47" fill="#ffffff" opacity="0.86"/><circle cx="81.7" cy="198.4" r="15.2" fill="url(#halo)" opacity="0.3"/><circle cx="81.7" cy="198.4" r="2.17" fill="#ffe3c4" opacity="0.89"/><circle cx="782.6" cy="524.3" r="15.7" fill="url(#halo)" opacity="0.3"/><circle cx="782.6" cy="524.3" r="2.25" fill="#ffe3c4" opacity="0.76"/><circle cx="1166.0" cy="89.6" r="14.4" fill="url(#halo)" opacity="0.3"/><circle cx="1166.0" cy="89.6" r="2.06" fill="#cfe0ff" opacity="0.86"/><circle cx="182.4" cy="417.0" r="2.03" fill="#ffe3c4" opacity="0.98"/><circle cx="601.9" cy="497.5" r="1.62" fill="#ffffff" opacity="0.93"/><circle cx="447.7" cy="61.8" r="2.14" fill="#ffffff" opacity="0.98"/><circle cx="1187.5" cy="496.5" r="1.56" fill="#ffffff" opacity="0.94"/><circle cx="64.8" cy="302.9" r="1.37" fill="#ffffff" opacity="0.82"/><circle cx="385.7" cy="30.3" r="2.09" fill="#ffffff" opacity="0.90"/><circle cx="167.2" cy="102.3" r="1.51" fill="#ffffff" opacity="0.88"/><circle cx="1060.0" cy="277.1" r="1.58" fill="#ffffff" opacity="0.85"/><circle cx="946.5" cy="75.2" r="1.33" fill="#ffffff" opacity="0.76"/><circle cx="156.4" cy="19.2" r="1.45" fill="#ffffff" opacity="0.78"/><circle cx="315.4" cy="48.6" r="1.67" fill="#ffffff" opacity="0.93"/><circle cx="111.2" cy="501.7" r="1.75" fill="#ffffff" opacity="0.75"/></g>
<g opacity="0.65"><circle cx="92" cy="76" r="16" fill="url(#halo)" opacity="0.55"/><path d="M77 76H107M92 61V91" stroke="#ffffff" stroke-width="0.9" opacity="0.6"/><circle cx="92" cy="76" r="1.7" fill="#ffffff"/></g><g opacity="0.65"><circle cx="1136" cy="470" r="16" fill="url(#halo)" opacity="0.55"/><path d="M1123 470H1149M1136 457V483" stroke="#ffffff" stroke-width="0.9" opacity="0.6"/><circle cx="1136" cy="470" r="1.7" fill="#ffffff"/></g><g opacity="0.65"><circle cx="152" cy="472" r="16" fill="url(#halo)" opacity="0.55"/><path d="M141 472H163M152 461V483" stroke="#ffffff" stroke-width="0.9" opacity="0.6"/><circle cx="152" cy="472" r="1.7" fill="#ffffff"/></g>
</svg>