<svg xmlns="http://www.w3.org/2000/svg" width="960" height="540" viewBox="0 0 960 540" role="img" aria-labelledby="title desc">
  <title id="title">욕실 실리콘 보수 완료 더미</title>
  <desc id="desc">퇴실 기록 리포트 클릭투어에서 보수 완료 첨부 흐름을 확인하기 위한 더미 이미지</desc>
  <rect width="960" height="540" fill="#fbfaf7"/>
  <rect x="48" y="48" width="864" height="444" rx="20" fill="#ffffff" stroke="#c7d7ea" stroke-width="4"/>
  <rect x="96" y="118" width="770" height="62" rx="12" fill="#e8eef5"/>
  <rect x="96" y="218" width="770" height="62" rx="12" fill="#e8eef5"/>
  <rect x="96" y="318" width="770" height="62" rx="12" fill="#e8eef5"/>
  <path d="M120 180c110 58 236 58 346 0s236-58 346 0" fill="none" stroke="#5f8fc8" stroke-width="12" stroke-linecap="round"/>
  <path d="M120 280c110 58 236 58 346 0s236-58 346 0" fill="none" stroke="#5f8fc8" stroke-width="12" stroke-linecap="round"/>
  <circle cx="780" cy="398" r="48" fill="#edf7ee" stroke="#77a878" stroke-width="5"/>
  <path d="M756 398l17 17 34-38" fill="none" stroke="#2f7d32" stroke-width="8" stroke-linecap="round" stroke-linejoin="round"/>
  <text x="92" y="438" fill="#0b3558" font-family="Arial, sans-serif" font-size="30" font-weight="700">욕실 실리콘 보수 완료 사진</text>
  <text x="92" y="470" fill="#3b556f" font-family="Arial, sans-serif" font-size="22">보수 후 상태를 확인하는 더미 첨부 근거</text>
</svg>
